<svg xmlns="http://www.w3.org/2000/svg" viewBox="-100.41 -63.576 2759.367 1725.742" fill="none" stroke-miterlimit="10" stroke-width="1.073" xmlns:v="https://vecta.io/nano"><path stroke="#9fa4ff" d="M1169.9 99.478l93.3 97.772-228.6-80.4z"/><path stroke="#f866ff" d="M1030.9 40.301l139 59.177-135.3 17.372z"/><path stroke="#2cffd3" d="M1263.2 197.25l1.4 162.34 18.1-113.61z"/><path stroke="#d4ff08" d="M1264.6 359.59l-1.4-162.34-167.3-5.64z"/><path stroke="#ffe700" d="M1095.9 191.61l167.3 5.64-93.3-97.772z"/><path stroke="#ff2f4f" d="M1095.9 191.61l74-92.132-139-59.177z"/><path stroke="#afff6f" d="M1095.9 191.61l-65-151.309-40.31-16.566z"/><path stroke="#50ffb3" d="M1032.6 319l-78.28-147.66 80.28-54.49z"/><path stroke="#fff972" d="M1264.6 359.59l-232-40.59 250.1-73.02z"/><path stroke="#252cff" d="M1263.2 197.25l19.5 48.73L1032.6 319z"/><path stroke="#2c97ff" d="M1263.2 197.25L1032.6 319l2-202.15z"/><path stroke="#fa36ff" d="M1233.6 442.37l-23.2 41.22 54.2-124z"/><path stroke="#ff0" d="M1264.6 359.59l-54.2 124L1032.6 319z"/><path stroke="#5fffe9" d="M1926.1 643.69l-111.1-152 174.9 7.24z"/><path stroke="#00ffa0" d="M990.59 23.735l40.31 16.566-126.45 46.017z"/><path stroke="#ff86a4" d="M1034.6 116.85l-80.28 54.49-49.87-85.022z"/><path stroke="#91ff3b" d="M904.45 86.318l126.45-46.017 3.7 76.549z"/><path stroke="#ff2fab" d="M2081.5 616.42l-155.4 27.27 63.8-144.76z"/><path stroke="#0091ff" d="M1095.9 191.61L990.59 23.735 945.16 177.75z"/><path stroke="#e836ff" d="M1867 784.39l-182-170.38 130-122.32z"/><path stroke="#ff6194" d="M1926.1 643.69l-59.1 140.7-52-292.7z"/><path stroke="#4f9cff" d="M990.59 23.735L917.34 96.56l27.82 81.19z"/><path stroke="#fff18b" d="M1094.9 491.6l115.5-8.01 23.2-41.22z"/><path stroke="#ff670c" d="M2081.5 616.42l215.4-83.78-56.3 132.61z"/><path stroke="#ff891e" d="M1095.9 191.61l-69.3 169.37 238-1.39z"/><path stroke="#ffb2a6" d="M1026.6 360.98l207 81.39 31-82.78z"/><path stroke="#c825ff" d="M1026.6 360.98l69.3-169.37-150.74-13.86z"/><path stroke="#ff0450" d="M1026.6 360.98l68.3 130.62 138.7-49.23z"/><path stroke="#e900c1" d="M1032.6 319l177.8 164.59-159.8-18.21z"/><path stroke="#ff58be" d="M2240.6 665.25l36.8 161.66-241.9-79.11z"/><path stroke="#63ff8a" d="M2035.5 747.8l-109.4-104.11 155.4-27.27z"/><path stroke="#4c00ff" d="M1867 784.39l59.1-140.7 109.4 104.11z"/><path stroke="#50ff13" d="M2240.6 665.25l-205.1 82.55 46-131.38z"/><path stroke="#e7ffa2" d="M1687.9 787.57l-2.9-173.56 182 170.38z"/><path stroke="#7efff8" d="M1121.2 647.58l-70.6-182.2 159.8 18.21z"/><path stroke="#71d30f" d="M2081.5 616.42l117.4-255.56 98 171.78z"/><path stroke="#4589ff" d="M1989.9 498.93l209-138.07-117.4 255.56z"/><path stroke="#ffbf21" d="M2240.6 665.25l56.3-132.61 60.5 251.42z"/><path stroke="#ff1bc9" d="M2277.4 826.91l-36.8-161.66 116.8 118.81z"/><path stroke="#ff5c00" d="M990.59 23.735l-86.14 62.583-36.84-73.988z"/><path stroke="#dbff13" d="M2277.4 826.91l-86.6 156.19-155.3-235.3z"/><path stroke="#fcffa5" d="M2357.4 784.06L2190.8 983.1l86.6-156.19z"/><path stroke="#2a42ff" d="M945.16 177.75l5.84 87.46 75.6 95.77z"/><path stroke="#68e3ff" d="M904.45 86.318l49.87 85.022-91.04-35.58z"/><path stroke="#ffc935" d="M904.45 86.318l-41.17 49.442 4.33-123.43z"/><path stroke="#ff22a2" d="M1815 491.69l-130 122.32-157.7-163.47z"/><path stroke="#92ffbd" d="M1527.3 450.54l184.1-146.99L1815 491.69z"/><path stroke="#f1ff05" d="M990.59 23.735L867.61 12.33l31.97-10.786z"/><path stroke="#d31aff" d="M1527.3 450.54l-97.2 132.24-73.7-100.36z"/><path stroke="#37ff75" d="M1685 614.01l-254.9-31.23 97.2-132.24z"/><path stroke="#7928ff" d="M2047.4 961.38l-11.9-213.58 155.3 235.3z"/><path stroke="#f9ff84" d="M1507.2 680.1l-77.1-97.32 254.9 31.23z"/><path stroke="#c8f9ff" d="M1507.2 680.1l177.8-66.09 2.9 173.56z"/><path stroke="#00d0ff" d="M2296.9 532.64l-98-171.78 183.6 164.37z"/><path stroke="#ff3b00" d="M2357.4 784.06l-60.5-251.42 85.6-7.41z"/><path stroke="#0fff5c" d="M1392.3 750.73l-35.9-268.31 73.7 100.36z"/><path stroke="#cbff08" d="M1032.6 319l18 146.38-150.38-167.8z"/><path stroke="#beff42" d="M954.32 171.34L1032.6 319l-132.38-21.42z"/><path stroke="#7d22ff" d="M954.32 171.34l-54.1 126.24-36.94-161.82z"/><path stroke="#64cbff" d="M1989.9 498.93l93.6-286.82 115.4 148.75z"/><path stroke="#71ff2c" d="M1527.3 450.54l27.9-107.3 156.2-39.69z"/><path stroke="#ff23bd" d="M2190.8 983.1l-67.5 46.5-75.9-68.22z"/><path stroke="#21e0ff" d="M2123.3 1029.6l67.5-46.5 33.4 188.7z"/><path stroke="#06ff3f" d="M2198.9 360.86l-115.4-148.75 214.4 162.44z"/><path stroke="#fff839" d="M2297.9 374.55l84.6 150.68-183.6-164.37z"/><path stroke="#66ff32" d="M1309.1 1528.5l61.9 62.9-224.4 4.4z"/><path stroke="#baff9a" d="M1153.4 1544.7l155.7-16.2-162.5 67.3z"/><path stroke="#78ff37" d="M1874.8 231.62l208.7-19.51-93.6 286.82z"/><path stroke="#bf8aff" d="M1815 491.69l-103.6-188.14 163.4-71.93z"/><path stroke="#ff9413" d="M1989.9 498.93l-174.9-7.24 59.8-260.07z"/><path stroke="#ffd5aa" d="M2224.2 1171.8l-33.4-188.7 79.7 48.4z"/><path stroke="#e5ff87" d="M2357.4 784.06l-86.9 247.44-79.7-48.4z"/><path stroke="#36ffce" d="M1210.4 483.59l-109.3 202.24 20.1-38.25z"/><path stroke="#ffab64" d="M1094.9 491.6l6.2 194.23 109.3-202.24z"/><path stroke="#72ff55" d="M2123.3 1029.6l100.9 142.2-72.6 219.3z"/><path stroke="#ffb58c" d="M2261 1448.7l-109.4-57.6 72.6-219.3z"/><path stroke="#ff5042" d="M2261.1 1592.5l-140.3-11.4 30.8-190z"/><path stroke="#ff9544" d="M2261.1 1592.5l-109.5-201.4 109.4 57.6z"/><path stroke="#ffe30c" d="M2339.4 1584.7l-78.3 7.8-.1-143.8z"/><path stroke="#ff1f87" d="M1392.3 750.73l-196.5-146.09 160.6-122.22z"/><path stroke="#f919ff" d="M993.9 531.05l-93.68-233.47 150.38 167.8z"/><path stroke="#e059ff" d="M993.9 531.05l56.7-65.67 70.6 182.2z"/><path stroke="#ff0004" d="M1195.8 604.64l69.2-126.95 91.4 4.73z"/><path stroke="#eadaff" d="M945.16 177.75l-36.49 30.48L951 265.21z"/><path stroke="#45ff00" d="M945.16 177.75L870.72 63.487l37.95 144.743z"/><path stroke="#ff1ca4" d="M990.59 23.735L899.58 1.544l-28.86 61.943z"/><path stroke="#0e91ff" d="M990.59 23.735L870.72 63.487l46.62 33.073z"/><path stroke="#fff7ab" d="M945.16 177.75l-27.82-81.19-46.62-33.073z"/><path stroke="#5dffb3" d="M1867 784.39l168.5-36.59-163.8 188.86z"/><path stroke="#57a5ff" d="M1867 784.39l4.7 152.27-183.8-149.09z"/><path stroke="#62ffd4" d="M1871.7 936.66l-201.1-41.62 17.3-107.47z"/><path stroke="#108fff" d="M1190.3 906.32l202-155.59-24.9 157.4z"/><path stroke="#79ff30" d="M1190.3 906.32l5.5-301.68 196.5 146.09z"/><path stroke="#ff1faf" d="M1189.7 1002.7l.6-96.38L1304 1042.8z"/><path stroke="#c8fff2" d="M1304 1042.8l-113.7-136.48 177.1 1.81z"/><path stroke="#ff531d" d="M2224.2 1171.8l79.7 156.4-42.9 120.5z"/><path stroke="#7fccff" d="M2303.9 1328.2l-79.7-156.4 46.3-140.3z"/><path stroke="#99ff7a" d="M2303.9 1328.2l35.5 256.5-78.4-136z"/><path stroke="#28ff9c" d="M2035.5 747.8l-60.3 211.64-103.5-22.78z"/><path stroke="#96f0ff" d="M2035.5 747.8l11.9 213.58-72.2-1.94z"/><path stroke="#bbecff" d="M1306.6 1426.9l64.4 164.5-61.9-62.9z"/><path stroke="#eaff9f" d="M1153.4 1544.7l153.2-117.8 2.5 101.6z"/><path stroke="#ffffd3" d="M1304 1042.8l-83.8 107.7-30.5-147.8z"/><path stroke="#1cff91" d="M2297.9 374.55l96.6 94.56-12 56.12z"/><path stroke="#6389ff" d="M2151.6 1391.1l-30.8 190-72.8-10.9z"/><path stroke="#bbffaf" d="M1234.4 1439l69.6-396.2 2.6 384.1z"/><path stroke="#75ffba" d="M1304 1042.8l-69.6 396.2-14.2-288.5z"/><path stroke="#00f" d="M1234.4 1439l72.2-12.1-153.2 117.8z"/><path stroke="#ff00cf" d="M1690.9 961.29l-20.3-66.25 201.1 41.62z"/><path stroke="#95ff6a" d="M1265 477.69l-69.2 126.95-57.5-180.74z"/><path stroke="#00ff42" d="M1371.8 1424.9l-67.8-382.1 57.8 52.1z"/><path stroke="#ff1fba" d="M1371.8 1424.9l-.8 166.5-64.4-164.5z"/><path stroke="#289aff" d="M1306.6 1426.9l-2.6-384.1 67.8 382.1z"/><path stroke="#13ff4e" d="M2047.4 961.38l75.9 68.22-64.4-8z"/><path stroke="#8696ff" d="M2047.4 961.38l11.5 60.22-83.7-62.16z"/><path stroke="#ffba80" d="M1356.4 482.42l-91.4-4.73 65.3-163.93z"/><path stroke="#e818ff" d="M1555.2 343.24l-27.9 107.3-197-136.78z"/><path stroke="#ff0498" d="M1330.3 313.76L1265 477.69l-126.7-53.79z"/><path stroke="#6cffc2" d="M1356.4 482.42l-26.1-168.66 197 136.78z"/><path stroke="#e0ff94" d="M2270.5 1031.5l86.9-247.44 17.7 95.18z"/><path stroke="#cb3bff" d="M2105.1 1439l46.5-47.9-103.6 179.1z"/><path stroke="#ff8104" d="M863.28 135.76l36.94 161.82L793.4 185.06z"/><path stroke="#89ff00" d="M867.61 12.33l-4.33 123.43-69.88 49.3z"/><path stroke="#ff169e" d="M1367.4 908.13l59.1 62.74-122.5 71.93z"/><path stroke="#c8d2f9" d="M1304 1042.8l122.5-71.93-64.7 124.03z"/><path stroke="#c03fff" d="M2270.5 1031.5l104.6-152.26-66.7 144.96z"/><path stroke="#00ff75" d="M2129.4 1210.3l22.2 180.8-46.5 47.9z"/><path stroke="#c3ccff" d="M2151.6 1391.1l-22.2-180.8-6.1-180.7z"/><path stroke="#a917ff" d="M2058.9 1021.6l64.4 8 6.1 180.7z"/><path stroke="#59ffcf" d="M1874.8 231.62l-163.4 71.93 2.5-122.84z"/><path stroke="#ff9ad5" d="M1435.2 843.76l72-163.66 180.7 107.47z"/><path stroke="#d2ff13" d="M1435.2 843.76l-5.1-260.98 77.1 97.32z"/><path stroke="#ff42cf" d="M1435.2 843.76l-67.8 64.37 24.9-157.4z"/><path stroke="#92ff55" d="M1435.2 843.76l252.7-56.19-17.3 107.47z"/><path stroke="#72ff38" d="M1426.5 970.87l-59.1-62.74 67.8-64.37z"/><path stroke="#78ff03" d="M1430.1 582.78l5.1 260.98-42.9-93.03z"/><path stroke="#ffe255" d="M1894.9 976.75l-23.2-40.09 103.5 22.78z"/><path stroke="#b3ff5e" d="M1894.9 976.75l80.3-17.31 83.7 62.16z"/><path stroke="#ff04d1" d="M1894.9 976.75l-204-15.46 180.8-24.63z"/><path stroke="#c0a0ff" d="M1330.3 313.76l203.4-89.34 21.5 118.82z"/><path stroke="#33efff" d="M1711.4 303.55l-156.2 39.69-21.5-118.82z"/><path stroke="#f57540" d="M1713.9 180.71l-2.5 122.84-177.7-79.13z"/><path stroke="#ff1b82" d="M2330.8 1303.1l-26.9 25.1-33.4-296.7z"/><path stroke="#ff003f" d="M2330.8 1303.1l-60.3-271.6 37.9-7.3z"/><path stroke="#d015ff" d="M1107.6 628.22l88.2-23.58-5.5 301.68z"/><path stroke="#004fff" d="M1195.8 604.64l-88.2 23.58 30.7-204.32z"/><path stroke="#7942ff" d="M2339.4 1584.7l-35.5-256.5 44.6 260.2z"/><path stroke="#ff58c2" d="M2330.8 1303.1l17.7 285.3-44.6-260.2z"/><path stroke="#ccf9ff" d="M867.15 122.59l3.57-59.103-41.43 21.366z"/><path stroke="#ff261f" d="M908.67 208.23L870.72 63.487l-3.57 59.103z"/><path stroke="#d9ffa5" d="M2357.4 784.06l68.7-73.54-51 168.72z"/><path stroke="#ffa8d3" d="M1330.3 313.76l40.4-96.85 163 7.51z"/><path stroke="#ff0c51" d="M1108.3 781.01l-.7-152.79 82.7 278.1z"/><path stroke="#2dff9b" d="M1330.3 313.76l-192 110.14 57.7-216.3z"/><path stroke="#fff700" d="M1196 207.6l174.7 9.31-40.4 96.85z"/><path stroke="#afff25" d="M1040.5 747.31l80.7-99.73-20.1 38.25z"/><path stroke="#22ffef" d="M913.49 432.96l-13.27-135.38 93.68 233.47z"/><path stroke="#ff00f2" d="M1026.6 360.98l-82.13 85.82 150.43 44.8z"/><path stroke="#ff23a0" d="M944.47 446.8l156.63 239.03-6.2-194.23z"/><path stroke="#37ff37" d="M944.47 446.8l82.13-85.82-75.6-95.77z"/><path stroke="#b640ff" d="M944.47 446.8L951 265.21l-42.33-56.98z"/><path stroke="#ffaf00" d="M1894.9 976.75l-211.5 12.1 7.5-27.56z"/><path stroke="#a6ffff" d="M870.72 63.487l-84.05 15.207 42.62 6.159z"/><path stroke="#78ff86" d="M899.58 1.544l-112.91 77.15 84.05-15.207z"/><path stroke="#6fffb9" d="M786.67 78.694l112.91-77.15-31.97 10.786z"/><path stroke="#ffa700" d="M786.67 78.694l80.94-66.364-74.21 172.73z"/><path stroke="#ff4ca5" d="M829.29 84.853l-42.62-6.159 80.48 43.896z"/><path stroke="#ff29af" d="M2292.9 273.67l101.6 195.44-96.6-94.56z"/><path stroke="#4017ff" d="M2292.9 273.67l5 100.88-214.4-162.44z"/><path stroke="#735fff" d="M154.32 1054.8l144.63-19.4-38.54 37.5z"/><path stroke="#4810ff" d="M1371 1591.4l.8-166.5 70.9 157.9z"/><path stroke="#d9f0ff" d="M1040.5 747.31l60.6-61.48-127.86-90.81z"/><path stroke="#d120ff" d="M993.9 531.05l-20.66 63.97-59.75-162.06z"/><path stroke="#781aff" d="M993.9 531.05l127.3 116.53-147.96-52.56z"/><path stroke="#52ff00" d="M973.24 595.02l147.96 52.56-80.7 99.73z"/><path stroke="#4bff4b" d="M944.47 446.8l-30.98-13.84 59.75 162.06z"/><path stroke="#30ffe7" d="M1101.1 685.83L944.47 446.8l28.77 148.22z"/><path stroke="#74ff5a" d="M1179.4 1221.8l40.8-71.3 14.2 288.5z"/><path stroke="#f72fff" d="M298.95 1035.4l71.58 3.6 10.44 19.8z"/><path stroke="#5a35ff" d="M380.97 1058.8l-120.56 14.1 38.54-37.5z"/><path stroke="#c9ff68" d="M1085.1 402.14l53.2 21.76-30.7 204.32z"/><path stroke="#70fb8d" d="M774.9 419.77l82.84-50.61 55.75 63.8z"/><path stroke="#caa3ff" d="M857.74 369.16l42.48-71.58 13.27 135.38z"/><path stroke="#a4c7ff" d="M1190.3 906.32l-54.8 1.46-27.2-126.77z"/><path stroke="#ffa266" d="M1189.7 1002.7l-54.2-94.92 54.8-1.46z"/><path stroke="#98ff6f" d="M774.9 419.77l52.03-151.07 30.81 100.46z"/><path stroke="#8cff29" d="M900.22 297.58l-73.29-28.88-33.53-83.64z"/><path stroke="#ff176c" d="M857.74 369.16L826.93 268.7l73.29 28.88z"/><path stroke="#73ff0c" d="M774.9 419.77l-83.77-46.53 135.8-104.54z"/><path stroke="#c0ffea" d="M1189.7 1002.7l30.5 147.8-78-82.3z"/><path stroke="#413cff" d="M1220.2 1150.5l-40.8 71.3-37.2-153.6z"/><path stroke="#5dff38" d="M1135.5 907.78l54.2 94.92-47.5 65.5z"/><path stroke="#ff4cb9" d="M944.47 446.8l-35.8-238.57 4.81 65.74z"/><path stroke="#ffbd00" d="M154.32 1054.8l106.09 18.1-103.27.9z"/><path stroke="#ff6f31" d="M380.97 1058.8l-122.77 13.9 2.21.2z"/><path stroke="#ff397a" d="M157.14 1073.8l103.27-.9-2.21-.2z"/><path stroke="#91ff47" d="M1404.1 1296.8l38.6 286-70.9-157.9z"/><path stroke="#ff6e77" d="M1371.8 1424.9l-10-330 42.3 201.9z"/><path stroke="#ff11c0" d="M710.59 265.94l82.81-80.88 33.53 83.64z"/><path stroke="#fff072" d="M786.67 78.694l6.73 106.366-82.81 80.88z"/><path stroke="#c7ff6f" d="M691.13 373.24l19.46-107.3 116.34 2.76z"/><path stroke="#08acff" d="M1234.4 1439l-45.2 24.8-9.8-242z"/><path stroke="#ff1378" d="M1234.4 1439l-81 105.7 35.8-80.9z"/><path stroke="#6cfff5" d="M1011.8 376.4l-67.33 70.4-30.99-172.83z"/><path stroke="#ff00bf" d="M239.8 1038l59.15-2.6H119.42z"/><path stroke="#94ffcc" d="M119.42 1035.4h179.53l-144.63 19.4z"/><path stroke="#82e2ff" d="M1085.1 402.14l22.2-139.13 31 160.89z"/><path stroke="#ff7760" d="M1196 207.6l-57.7 216.3-31-160.89z"/><path stroke="#00ff70" d="M1011.8 376.4l95.5-113.39-22.2 139.13z"/><path stroke="#ffa11e" d="M1690.9 961.29l-7.5 27.56-207.3-68.21z"/><path stroke="#b500ff" d="M1670.6 895.04l20.3 66.25-214.8-40.65z"/><path stroke="#29aaff" d="M1426.5 970.87l8.7-127.11 40.9 76.88z"/><path stroke="#ff5fd7" d="M1435.2 843.76l235.4 51.28-194.5 25.6z"/><path stroke="#0028ff" d="M2292.9 273.67L2437 437.41l-42.5 31.7z"/><path stroke="#3c38ff" d="M298.95 1035.4l129.33-52.26-57.75 55.86z"/><path stroke="#9eff64" d="M340.88 1015.4l87.4-32.26-129.33 52.26z"/><path stroke="#ff0400" d="M340.88 1015.4l-41.93 20-59.15 2.6z"/><path stroke="#1f05ff" d="M17.391 1028.2l102.029 7.2 34.9 19.4z"/><path stroke="#44ffb2" d="M380.97 1058.8l4.1 8.5-126.87 5.4z"/><path stroke="#0f6" d="M2083.5 212.11l21.4-108.1 188 169.66z"/><path stroke="#6befad" d="M17.391 1028.2l136.929 26.6L25.971 1039z"/><path stroke="#b667ff" d="M157.14 1073.8L25.971 1039l128.349 15.8z"/><path stroke="#ff193c" d="M178.16 1051.9l61.64-13.9-120.38-2.6z"/><path stroke="#7787ff" d="M258.2 1072.7l-15.49-16-64.55-4.8z"/><path stroke="#3fff21" d="M258.2 1072.7l-80.04-20.8-21.02 21.9z"/><path stroke="#41d7ff" d="M239.8 1038l-61.64 13.9 64.55 4.8z"/><path stroke="#ecffd2" d="M1153.4 1544.7l-61.9 34.4 97.7-115.3z"/><path stroke="#24ff31" d="M1153.4 1544.7l-6.8 51.1-55.1-16.7z"/><path stroke="#00ffe4" d="M2330.8 1303.1l-22.4-278.9-36.6 169z"/><path stroke="#adff08" d="M703.06 437.62l-11.93-64.38 83.77 46.53z"/><path stroke="#95ff35" d="M2058.9 1021.6l70.5 188.7 16.8-113.7z"/><path stroke="#8f00ff" d="M178.16 1051.9l-58.74-16.5-26.509 8.9z"/><path stroke="#c66bff" d="M157.14 1073.8l21.02-21.9-85.249-7.6z"/><path stroke="#6aff16" d="M157.14 1073.8l-64.229-29.5-66.94-5.3z"/><path stroke="#deffd0" d="M-.567 1016.4l119.987 19-102.029-7.2z"/><path stroke="#ff8fbc" d="M25.971 1039l-26.538-22.6 17.958 11.8z"/><path stroke="#03ffe0" d="M92.911 1044.3l-93.478-27.9 26.538 22.6z"/><path stroke="#f17fff" d="M119.42 1035.4l-119.987-19 93.478 27.9z"/><path stroke="#62d9ff" d="M688.01 412.72l3.12-39.48 11.93 64.38z"/><path stroke="#fdb80d" d="M1438.3 1057.8l-76.5 37.1 64.7-124.03z"/><path stroke="#fff700" d="M1361.8 1094.9l76.5-37.1-34.2 239z"/><path stroke="#ff00d7" d="M2129.4 1210.3l15.9 184.9.9-298.6z"/><path stroke="#4cffd0" d="M2145.3 1395.2l-15.9-184.9-24.3 228.7z"/><path stroke="#ff9147" d="M2146.2 1096.6l-.9 298.6 126.5-202z"/><path stroke="#2936ff" d="M675.13 428.04l1.57-15.11 16.62 10.7z"/><path stroke="#00ff8c" d="M675.13 428.04l-11.04-13.6 12.61-1.51z"/><path stroke="#afa6ff" d="M693.32 423.63l-10.75 17.16-7.44-12.75z"/><path stroke="#ff0015" d="M688.01 412.72l15.05 24.9-3.42-6.31z"/><path stroke="#00ffb2" d="M1874.8 231.62l53.3-140.218 155.4 120.708z"/><path stroke="#fff1a8" d="M1928.1 91.402l176.8 12.608-21.4 108.1z"/><path stroke="#01ff57" d="M1928.1 91.402l-53.3 140.218-160.9-50.91z"/><path stroke="#a9ff00" d="M682.57 440.79l-13.8 3.17 6.36-15.92z"/><path stroke="#ffeb10" d="M786.67 78.694l5.95 25.786 74.53 18.11z"/><path stroke="#51ffe5" d="M340.88 1015.4L239.8 1038l118.11-12.4z"/><path stroke="#ff8bc0" d="M357.91 1025.6L239.8 1038l2.91 18.7z"/><path stroke="#3aff33" d="M688.01 412.72l11.63 18.59-10.55-17.45z"/><path stroke="#ff0056" d="M2271.8 1193.2l36.6-169-42.8 5.9z"/><path stroke="#18ff0b" d="M2271.8 1193.2l-6.2-163.1-119.4 66.5z"/><path stroke="#e727ff" d="M357.91 1025.6l-115.2 31.1 117.52-1.5z"/><path stroke="#ff880b" d="M242.71 1056.7l15.49 16 102.03-17.5z"/><path stroke="#9cff72" d="M258.2 1072.7l126.87-5.4-24.84-12.1z"/><path stroke="#ff7c74" d="M2339.4 1584.7l9.1 3.7-52.2 1z"/><path stroke="#ff0b99" d="M2296.3 1589.4l52.2-1-17.7-285.3z"/><path stroke="#f5f5a8" d="M2296.3 1589.4l34.5-286.3-59-109.9z"/><path stroke="#ff6de0" d="M2271.8 1193.2l-126.5 202 151 194.2z"/><path stroke="#7111ff" d="M2296.3 1589.4l-35.2 3.1 78.3-7.8z"/><path stroke="#ffdb63" d="M2261.1 1592.5l35.2-3.1-175.5-8.3z"/><path stroke="#12ff83" d="M370.53 1039l124.73-30.5-114.29 50.3z"/><path stroke="#6f03ff" d="M495.26 1008.5L370.53 1039l57.75-55.86z"/><path stroke="#36ffe9" d="M676.7 412.93l-12.61 1.51 15.69-11.52z"/><path stroke="#ffba52" d="M693.32 423.63l-16.62-10.7 3.08-10.01z"/><path stroke="#09eaff" d="M675.13 428.04l-6.36 15.92-13.66-11.68z"/><path stroke="#ffd05f" d="M710.59 265.94l-19.46 107.3-76.23 10.86z"/><path stroke="#ffe721" d="M657.48 446.2l-2.37-13.92 13.66 11.68z"/><path stroke="#00ff81" d="M675.13 428.04l-20.02 4.24-.26-14.83z"/><path stroke="#ffdb00" d="M675.13 428.04l-20.28-10.59 9.24-3.01z"/><path stroke="#07ffc2" d="M663.54 401.65l24.47 11.07 1.08 1.14z"/><path stroke="#d943ff" d="M688.01 412.72l-24.47-11.07 27.59-28.41z"/><path stroke="#ff3e8d" d="M663.54 401.65L614.9 384.1l76.23-10.86z"/><path stroke="#07ff11" d="M500.9 920.53l36.6 20.95-109.22 41.66z"/><path stroke="#00b4ff" d="M428.28 983.14l109.22-41.66-42.24 67.02z"/><path stroke="#ffb0ef" d="M675.49 454.5l-18.01-8.3 11.29-2.24z"/><path stroke="#ff6400" d="M682.57 440.79l-7.08 13.71-6.72-10.54z"/><path stroke="#ffd15c" d="M692.67 445.2l-17.18 9.3 7.08-13.71z"/><path stroke="#c141ff" d="M693.32 423.63l-.65 21.57-10.1-4.41z"/><path stroke="#36ff7c" d="M2382.5 525.23l65 31.74-90.1 227.09z"/><path stroke="#ffe630" d="M2447.5 556.97l-65-31.74 12-56.12z"/><path stroke="#4b05ff" d="M2437 437.41l10.5 119.56-53-87.86z"/><path stroke="#00c6ff" d="M2447.5 556.97l-21.4 153.55-68.7 73.54z"/><path stroke="#7c84ff" d="M663.54 401.65l25.55 12.21-17.16-7.76z"/><path stroke="#ffdc6d" d="M693.8 459.63l9.26-22.01 71.84-17.85z"/><path stroke="#6cff2a" d="M1076 596.69l9.1-194.55 22.5 226.08z"/><path stroke="#6aff4d" d="M1076 596.69l31.6 31.53.7 152.79z"/><path stroke="#ff9605" d="M664.09 414.44l-9.24 3.01 6.37-13.49z"/><path stroke="#c6ff48" d="M664.09 414.44l-2.87-10.48 18.56-1.04z"/><path stroke="#0fffef" d="M1189.2 1463.8l23.7-175.5-33.5-66.5z"/><path stroke="#31ff69" d="M1179.4 1221.8l33.5 66.5-70.7-220.1z"/><path stroke="#a6ffd9" d="M703.06 437.62l-9.26 22.01-.65-12.89z"/><path stroke="#68fff3" d="M703.06 437.62l-9.91 9.12 6.49-15.43z"/><path stroke="#e5bdff" d="M661.97 456.5l-4.49-10.3 18.01 8.3z"/><path stroke="#d7afff" d="M340.88 1015.4l78.18-33.37 9.22 1.11z"/><path stroke="#19ff82" d="M419.06 982.03l-78.18 33.37 17.03 10.2z"/><path stroke="#ffea9a" d="M693.71 400.78l-.39 22.85-13.54-20.71z"/><path stroke="#9333ff" d="M2048 1570.2l27.4 17.6 29.7-148.8z"/><path stroke="#900aff" d="M2075.4 1587.8l69.9-192.6-40.2 43.8z"/><path stroke="#e799ff" d="M2075.4 1587.8l-27.4-17.6 72.8 10.9z"/><path stroke="#f4cfff" d="M908.67 208.23l-41.52-85.64-9.85 8.55z"/><path stroke="#ff2a42" d="M908.67 208.23l-51.37-77.09 56.18 142.83z"/><path stroke="#14ffb4" d="M693.71 400.78l-13.93 2.14 1.88-6.95z"/><path stroke="#001eff" d="M681.66 395.97l-1.88 6.95-18.56 1.04z"/><path stroke="#6c00ff" d="M661.97 456.5l-14.16-12.97 9.67 2.67z"/><path stroke="#38ff42" d="M657.48 446.2l-9.67-2.67 7.3-11.25z"/><path stroke="#bfefff" d="M647.81 443.53l-3.61-12.96 10.91 1.71z"/><path stroke="#256bff" d="M654.85 417.45l-10.65 13.12 17.02-26.61z"/><path stroke="#00ffc7" d="M654.85 417.45l.26 14.83-10.91-1.71z"/><path stroke="#11c5ff" d="M2426.1 710.52l-89 242.14 38-73.42z"/><path stroke="#e20aff" d="M2337.1 952.66l-28.7 71.54 66.7-144.96z"/><path stroke="#ff4fc8" d="M693.71 400.78l12.11 7.28-12.5 15.57z"/><path stroke="#7affb6" d="M702.32 446.82l-13.52 7.47-13.31.21z"/><path stroke="#ad00ff" d="M702.32 446.82l-26.83 7.68 17.18-9.3z"/><path stroke="#08c5ff" d="M692.67 445.2l.65-21.57 13.75 13.1z"/><path stroke="#ff8294" d="M702.32 446.82l-9.65-1.62 14.4-8.47z"/><path stroke="#c97fff" d="M705.82 408.06l2.87 12.98-15.37 2.59z"/><path stroke="#fff7b2" d="M707.07 436.73l-13.75-13.1 15.37-2.59z"/><path stroke="#b8ff57" d="M681.66 395.97l-20.44 7.99 8.38-7.39z"/><path stroke="#ff2ea3" d="M688.8 454.29l-9.54 5.47-3.77-5.26z"/><path stroke="#2bff9a" d="M661.97 456.5l13.52-2 3.77 5.26z"/><path stroke="#ff8ff5" d="M380.97 1058.8l114.29-50.3-48.02 19.6z"/><path stroke="#4127ff" d="M360.23 1055.2l24.84 12.1 62.17-39.2z"/><path stroke="#6dff8d" d="M447.24 1028.1l-62.17 39.2-4.1-8.5z"/><path stroke="#ffae53" d="M641.42 415.76l22.12-14.11 8.39 4.45z"/><path stroke="#ffee49" d="M663.54 401.65l-22.12 14.11-26.52-31.66z"/><path stroke="#81ff69" d="M641.42 415.76l30.51-9.66-15.51 9.89z"/><path stroke="#74ffea" d="M1366.1 133.33l94.3-1.65-89.7 85.23z"/><path stroke="#531bff" d="M1196 207.6l170.1-74.27 4.6 83.58z"/><path stroke="#fffb00" d="M1135.5 907.78l6.7 160.42 27.9-189.98z"/><path stroke="#ffc33f" d="M1108.3 781.01l61.8 97.21-79.1-94.8z"/><path stroke="#4493ff" d="M1170.1 878.22l-61.8-97.21 27.2 126.77z"/><path stroke="#ffff3e" d="M1460.4 131.68l66.2 9.01-155.9 76.22z"/><path stroke="#ff5068" d="M1533.7 224.42l-163-7.51 155.9-76.22z"/><path stroke="#ff9600" d="M1713.9 180.71l-180.2 43.71-7.1-83.73z"/><path stroke="#ffa94c" d="M686.16 395.11l-4.5.86-12.06.6z"/><path stroke="#a2ff56" d="M693.71 400.78l-12.05-4.81 4.5-.86z"/><path stroke="#fffa6e" d="M693.8 459.63l-25.62-11.48 24.97-1.41z"/><path stroke="#ffff40" d="M554.14 815.66L537.5 941.48l-36.6-20.95z"/><path stroke="#59ff2e" d="M569.35 842.96l-31.85 98.52 16.64-125.82z"/><path stroke="#c9ff21" d="M699.65 398.82l6.17 9.24-12.11-7.28z"/><path stroke="#00ffa8" d="M693.71 400.78l-7.55-5.67 13.49 3.71z"/><path stroke="#45f1ff" d="M689.42 457.13l-.62-2.84 13.52-7.47z"/><path stroke="#ffd940" d="M689.42 457.13l-10.16 2.63 9.54-5.47z"/><path stroke="#3608ff" d="M1366.1 133.33L1196 207.6l11.7-113.492z"/><path stroke="#e100ff" d="M1207.7 94.108L1196 207.6l-88.7 55.41z"/><path stroke="#ff1163" d="M940.24 538.35l-63.32 89.34 36.57-194.73z"/><path stroke="#ff58e8" d="M689.42 457.13l-21.35 5.75 11.19-3.12z"/><path stroke="#ff3e35" d="M668.07 462.88l-6.1-6.38 17.29 3.26z"/><path stroke="#ff1b91" d="M693.8 459.63l-35.62 2.01 10-13.49z"/><path stroke="#4500ff" d="M658.18 461.64l-.67-25.54 10.67 12.05z"/><path stroke="#053dff" d="M711.89 434.49l-4.82 2.24 1.62-15.69z"/><path stroke="#ffbda4" d="M711.89 434.49l-9.57 12.33 4.75-10.09z"/><path stroke="#e1ff60" d="M653.61 455.36l-5.8-11.83 14.16 12.97z"/><path stroke="#789cff" d="M653.61 455.36l8.36 1.14 6.1 6.38z"/><path stroke="#54dafd" d="M711.95 422.32l-3.26-1.28-2.87-12.98z"/><path stroke="#2bff74" d="M711.95 422.32l-.06 12.17-3.2-13.45z"/><path stroke="#ffad28" d="M661.22 403.96l-17.02 26.61.63-9.02z"/><path stroke="#0a24ff" d="M642.97 444.45L614.9 384.1l26.52 31.66z"/><path stroke="#ff7d31" d="M642.97 444.45l-1.55-28.69 15 .23z"/><path stroke="#ba80ff" d="M658.18 461.64l-15.21-17.19 14.54-8.35z"/><path stroke="#bdb9ff" d="M642.97 444.45l13.45-28.46 1.09 20.11z"/><path stroke="#ff8c23" d="M686.16 395.11l-16.56 1.46 3.82-.72z"/><path stroke="#ff942e" d="M466.4 926.82l-38.12 56.32-9.22-1.11z"/><path stroke="#5fff4a" d="M466.4 926.82l34.5-6.29-72.62 62.61z"/><path stroke="#bf0" d="M466.4 926.82l87.74-111.16-53.24 104.87z"/><path stroke="#564dff" d="M711.95 422.32l-6.13-14.26 1.43 2.81z"/><path stroke="#d128ff" d="M707.25 410.87l-1.43-2.81-6.17-9.24z"/><path stroke="#ffaa52" d="M684.81 531.65l90.09-111.88 138.59 13.19z"/><path stroke="#3cff1a" d="M684.81 531.65l228.68-98.69-36.57 194.73z"/><path stroke="#daff9e" d="M693.8 459.63l81.1-39.86-90.09 111.88z"/><path stroke="#1eff4a" d="M2515.9 630.68l-43 17.56-25.4-91.27z"/><path stroke="#ff6652" d="M673.42 395.85l-3.82.72-9.26 6.01z"/><path stroke="#ffa168" d="M660.34 402.58l9.26-6.01-8.38 7.39z"/><path stroke="#fdaa27" d="M643.21 435.78l.99-5.21 3.61 12.96z"/><path stroke="#c2ebff" d="M644.83 421.55l-.63 9.02-.99 5.21z"/><path stroke="#2cfff9" d="M653.61 455.36l-10.4-19.58 4.6 7.75z"/><path stroke="#ff88a9" d="M700.16 449.21l2.16-2.39 9.57-12.33z"/><path stroke="#f20cff" d="M689.42 457.13l12.9-10.31-2.16 2.39z"/><path stroke="#ffe639" d="M2560.6 1059.6l-51.5 91.4 2.3-107.6z"/><path stroke="#bdffc2" d="M2250.6 1017.7l-104.4 78.9 119.4-66.5z"/><path stroke="#ecffb1" d="M2250.6 1017.7l57.8 6.5 28.7-71.54z"/><path stroke="#036fff" d="M2250.6 1017.7l15 12.4 42.8-5.9z"/><path stroke="#b450ff" d="M653.15 409.84l8.07-5.88-16.39 17.59z"/><path stroke="#e5faff" d="M653.15 409.84l7.19-7.26.88 1.38z"/><path stroke="#cfff27" d="M1170.1 878.22l-30.8-52.52-48.3-42.28z"/><path stroke="#8f00ff" d="M2472.9 648.24l43-17.56-3.4 299.42z"/><path stroke="#ff4fda" d="M2512.5 930.1l48.1 129.5-49.2-16.2z"/><path stroke="#151fff" d="M2512.5 930.1l-1.1 113.3-38.5-395.16z"/><path stroke="#a3ff23" d="M685.99 397.9l13.66.92-13.49-3.71z"/><path stroke="#ffe0f0" d="M685.99 397.9l.17-2.79-12.74.74z"/><path stroke="#ff00f6" d="M2426.1 710.52l5.1 64.91-94.1 177.23z"/><path stroke="#0701ff" d="M1189.2 1463.8l35.3-5.6-11.6-169.9z"/><path stroke="#ff135d" d="M1091.5 1579.1l133-120.9-35.3 5.6z"/><path stroke="#18ff77" d="M688.05 455.04l1.37 2.09 10.74-7.92z"/><path stroke="#886aff" d="M688.05 455.04l-19.98 7.84 21.35-5.75z"/><path stroke="#974eff" d="M658.81 456.69l-15.6-20.91 10.4 19.58z"/><path stroke="#4ffff7" d="M658.81 456.69l-5.2-1.33 14.46 7.52z"/><path stroke="#d3ffdb" d="M2431.2 378.51l-138.3-104.84-188-169.66z"/><path stroke="#ff8031" d="M2437 437.41l-144.1-163.74 138.3 104.84z"/><path stroke="#4100ff" d="M913.49 432.96l30.98 13.84 70.73 108.59z"/><path stroke="#ff7b51" d="M1011.8 376.4l73.3 25.74-69.9 153.25z"/><path stroke="#18ffae" d="M1015.2 555.39l-138.28 72.3 63.32-89.34z"/><path stroke="#fbfbe5" d="M1015.2 555.39l69.9-153.25-9.1 194.55z"/><path stroke="#66d5ff" d="M944.47 446.8l67.33-70.4 3.4 178.99z"/><path stroke="#3982ff" d="M913.49 432.96l101.71 122.43-74.96-17.04z"/><path stroke="#00f5ff" d="M2116.3 1012.5L1943 962.97l-48.1 13.78z"/><path stroke="#ffc8a3" d="M2146.2 1096.6l-29.9-84.1-57.4 9.1z"/><path stroke="#be66ff" d="M2146.2 1096.6l104.4-78.9-134.3-5.2z"/><path stroke="#4cff42" d="M2116.3 1012.5l-221.4-35.75 164 44.85z"/><path stroke="#44ff0a" d="M571.9 662.52l-17.76 153.14-10.86-53.95z"/><path stroke="#803bff" d="M2075.4 1587.8l129.7 8-59.8-200.6z"/><path stroke="#ffc16c" d="M2075.4 1587.8l45.4-6.7 84.3 14.7z"/><path stroke="#3abeff" d="M2120.8 1581.1l175.5 8.3-91.2 6.4z"/><path stroke="#99ff86" d="M2145.3 1395.2l59.8 200.6 91.2-6.4z"/><path stroke="#ef0" d="M579.23 576.45l105.58-44.8-102.92 153.7z"/><path stroke="#2603ff" d="M579.23 576.45l2.66 108.9-29.01-2.37z"/><path stroke="#beff00" d="M518.52 679.86l60.71-103.41-26.35 106.53z"/><path stroke="#caff48" d="M543.28 761.71l-6.16-95.17 34.78-4.02z"/><path stroke="#6fff01" d="M2482.8 447.83l33.1 182.85-68.4-73.71z"/><path stroke="#2bcfff" d="M2437 437.41l45.8 10.42-35.3 109.14z"/><path stroke="#e0ff0e" d="M2482.8 447.83l-45.8-10.42-5.8-58.9z"/><path stroke="#ff7655" d="M710.22 433.2l-10.06 16.01 11.73-14.72z"/><path stroke="#ae3fff" d="M710.22 433.2l1.67 1.29.06-12.17z"/><path stroke="#ff0e63" d="M708.91 419.05l1.31 14.15 1.73-10.88z"/><path stroke="#2deaff" d="M708.91 419.05l-1.66-8.18-7.6-12.05z"/><path stroke="#ff0085" d="M711.95 422.32l-4.7-11.45 1.66 8.18z"/><path stroke="#5bff7f" d="M688.05 455.04l-11.67 1.49-8.31 6.35z"/><path stroke="#b11eff" d="M676.38 456.53l-17.57.16 9.26 6.19z"/><path stroke="#ff4ebf" d="M685.99 397.9l-12.57-2.05-14.51 11.73z"/><path stroke="#6b2cff" d="M658.91 407.58l14.51-11.73-13.08 6.73z"/><path stroke="#eaff43" d="M660.34 402.58l-7.19 7.26 5.76-2.26z"/><path stroke="#ff8da0" d="M2511.4 1043.4l-2.3 107.6-33-75.9z"/><path stroke="#ff0dac" d="M518.52 679.86l34.36 3.12-.63.24z"/><path stroke="#ff3141" d="M2472.9 648.24l38.5 395.16-14.9-148.66z"/><path stroke="#b5ffd5" d="M2511.4 1043.4l-35.3 31.7 20.4-180.36z"/><path stroke="#c3ffa3" d="M543.28 761.71l10.86 53.95-43.02 24.43z"/><path stroke="#83a3ff" d="M466.4 926.82l44.72-86.73 43.02-24.43z"/><path stroke="#c6ffec" d="M1212.9 1288.3l58.1-105.6-128.8-114.5z"/><path stroke="#29ffc3" d="M653.15 409.84l-8.32 11.71 3.93-4.11z"/><path stroke="#4ae716" d="M658.91 407.58l-5.76 2.26-4.39 7.6z"/><path stroke="#34ffd2" d="M648.76 417.44l-3.93 4.11-1.62 14.23z"/><path stroke="#ff1305" d="M1076 596.69l-2.4 66.73-58.4-108.03z"/><path stroke="#ff1c20" d="M1108.3 781.01l-17.3 2.41-17.4-120z"/><path stroke="#ffec4d" d="M1073.6 663.42l2.4-66.73 32.3 184.32z"/><path stroke="#353eff" d="M676.38 456.53l-9.44-2.41-8.13 2.57z"/><path stroke="#ffd3cd" d="M518.52 679.86l33.73 3.36-19.15-1.74z"/><path stroke="#8304ff" d="M670.98 410.12l15.01-12.22-27.08 9.68z"/><path stroke="#38fcff" d="M670.98 410.12l11.98-4.85 3.03-7.37z"/><path stroke="#33ff25" d="M670.98 410.12l-12.07-2.54-10.15 9.86z"/><path stroke="#ea4dff" d="M598.44 448.61l44.53-4.16 15.21 17.19z"/><path stroke="#ceff61" d="M642.97 444.45l-44.53 4.16 16.46-64.51z"/><path stroke="#ffb400" d="M597.66 809.31L537.5 941.48l31.85-98.52z"/><path stroke="#6cff4f" d="M597.66 809.31l-28.31 33.65-15.21-27.3z"/><path stroke="#84ffbd" d="M571.9 662.52l25.76 146.79-43.52 6.35z"/><path stroke="#5e20fd" d="M2560.6 1059.6l-46 94.7-5.5-3.3z"/><path stroke="#ffcc53" d="M2509.1 1151l5.5 3.3-38.5-79.2z"/><path stroke="#ff26c1" d="M552.88 682.98l15.54 1.56-16.17-1.32z"/><path stroke="#95ffe1" d="M552.88 682.98l29.01 2.37-13.47-.81z"/><path stroke="#34dbff" d="M688.05 455.04l-1.2-8.23-10.47 9.72z"/><path stroke="#cbff14" d="M686.85 446.81l-19.91 7.31 9.44 2.41z"/><path stroke="#ff3500" d="M688.05 455.04l12.11-5.83-13.31-2.4z"/><path stroke="#8ad7ff" d="M598.44 448.61l46.19 33.62-65.4 94.22z"/><path stroke="#36ff13" d="M644.63 482.23l49.17-22.6-8.99 72.02z"/><path stroke="#ff6c31" d="M579.23 576.45l65.4-94.22 40.18 49.42z"/><path stroke="#c540ff" d="M598.44 448.61l59.74 13.03-13.55 20.59z"/><path stroke="#c7ff25" d="M644.63 482.23l13.55-20.59 35.62-2.01z"/><path stroke="#73fffa" d="M700.48 439.62l9.74-6.42-1.31-14.15z"/><path stroke="#baffd7" d="M686.85 446.81l13.31 2.4.32-9.59z"/><path stroke="#38ff20" d="M700.48 439.62l-.32 9.59 10.06-16.01z"/><path stroke="#8f07ff" d="M419.06 982.03l46.2-1.39 1.14-53.82z"/><path stroke="#fffa3c" d="M465.26 980.64l-107.35 44.96 2.32 29.6z"/><path stroke="#0b7cff" d="M465.26 980.64l-46.2 1.39-61.15 43.57z"/><path stroke="#ef5fff" d="M447.24 1028.1l18.02-47.46-105.03 74.56z"/><path stroke="#b1ff9e" d="M1354.6 1192.4l49.5 104.4 34.2-239z"/><path stroke="#666aff" d="M693.64 408.12l15.27 10.93-9.26-20.23z"/><path stroke="#e7ffbf" d="M693.64 408.12l6.01-9.3-13.66-.92z"/><path stroke="#06edff" d="M693.64 408.12l-7.65-10.22-3.03 7.37z"/><path stroke="#27a2ff" d="M1067.7 167.71l-55.9 208.69-98.32-102.43z"/><path stroke="#ddff9b" d="M1067.7 167.71l39.6 95.3-95.5 113.39z"/><path stroke="#ff804d" d="M1207.7 94.108L1107.3 263.01l-39.6-95.3z"/><path stroke="#ff00fa" d="M1354.6 1192.4l16.6 187.3 32.9-82.9z"/><path stroke="#973fff" d="M1404.1 1296.8l-32.9 82.9 71.5 203.1z"/><path stroke="#5b7eff" d="M653.3 433.24l-10.09 2.54 15.6 20.91z"/><path stroke="#ff5d6e" d="M653.3 433.24l5.51 23.45 8.13-2.57z"/><path stroke="#0012ff" d="M648.76 417.44l-5.55 18.34 10.09-2.54z"/><path stroke="#ff51fa" d="M537.5 941.48l.38 26.53-42.62 40.49z"/><path stroke="#6dff00" d="M537.88 968.01l-90.64 60.09 48.02-19.6z"/><path stroke="#ff58d6" d="M537.88 968.01l-72.62 12.63-18.02 47.46z"/><path stroke="#ffe0a2" d="M686.85 446.81l13.63-7.19-8.98-.91z"/><path stroke="#ff8c2a" d="M1512 945.44l-85.5 25.43 49.6-50.23z"/><path stroke="#d371ff" d="M1512 945.44l-73.7 112.36-11.8-86.93z"/><path stroke="#20deff" d="M1683.4 988.85L1512 945.44l-35.9-24.8z"/><path stroke="#d07aff" d="M666.77 421.49l16.19-16.22-11.98 4.85z"/><path stroke="#6cff49" d="M666.77 421.49l-18.01-4.05 4.54 15.8z"/><path stroke="#6dffdd" d="M666.77 421.49l4.21-11.37-22.22 7.32z"/><path stroke="#0a74ff" d="M666.77 421.49l20.93-8.03-4.74-8.19z"/><path stroke="#ff5f7c" d="M682.96 405.27l4.74 8.19 5.94-5.34z"/><path stroke="#8cff68" d="M667.43 439.44l19.42 7.37 4.65-8.1z"/><path stroke="#fd4047" d="M667.43 439.44l-14.13-6.2 13.64 20.88z"/><path stroke="#ff188b" d="M667.43 439.44l-.49 14.68 19.91-7.31z"/><path stroke="#117aff" d="M1129.7 1557.3l94.8-99.1-133 120.9z"/><path stroke="#89c2ff" d="M695.49 423.38l-7.79-9.92-20.93 8.03z"/><path stroke="#d764ff" d="M687.7 413.46l7.79 9.92-1.85-15.26z"/><path stroke="#ff7193" d="M691.5 438.71l8.98.91-4.99-16.24z"/><path stroke="#ff8d2c" d="M693.64 408.12l1.85 15.26 13.42-4.33z"/><path stroke="#5000ff" d="M700.48 439.62l8.43-20.57-13.42 4.33z"/><path stroke="#ffb43d" d="M2233.2 170.4l198 208.11-326.3-274.5z"/><path stroke="#c6ff00" d="M665.36 430.46l2.07 8.98 24.07-.73z"/><path stroke="#ff8236" d="M665.36 430.46l26.14 8.25 3.99-15.33z"/><path stroke="#fff650" d="M667.43 439.44l-2.07-8.98-12.06 2.78z"/><path stroke="#56ffff" d="M665.36 430.46l30.13-7.08-28.72-1.89z"/><path stroke="#42ff00" d="M666.77 421.49l-13.47 11.75 12.06-2.78z"/><path stroke="#baf3e9" d="M2482.8 447.83l16.5 231.78 16.6-48.93z"/><path stroke="#51ffbe" d="M2512.5 930.1l3.4-299.42-16.6 48.93z"/><path stroke="#0e7eff" d="M2496.5 894.74l2.8-215.13-26.4-31.37z"/><path stroke="#ffce0c" d="M2499.3 679.61l-2.8 215.13 16 35.36z"/><path stroke="#5ad6ff" d="M792.62 104.48l7.57 4.24 66.96 13.87z"/><path stroke="#ff24fa" d="M786.67 78.694l13.52 30.026-7.57-4.24z"/><path stroke="#b9e5ff" d="M867.15 122.59l-66.96-13.87 57.11 22.42z"/><path stroke="#7654ff" d="M511.12 840.09l7.68-84.31 24.48 5.93z"/><path stroke="#ff6900" d="M537.12 666.54l6.16 95.17-24.48-5.93z"/><path stroke="#60ffb0" d="M2447.5 556.97l25.4 91.27-29.8-101.94z"/><path stroke="#33b8ff" d="M2443.1 546.3l29.8 101.94 26.4 31.37z"/><path stroke="#0943ff" d="M2482.8 447.83l-39.7 98.47 56.2 133.31z"/><path stroke="#ff1b06" d="M2426.1 710.52l21.4-153.55-4.4-10.67z"/><path stroke="#c0ff1b" d="M2496.5 894.74l-20.4 180.36 38.8-34.2z"/><path stroke="#18ff82" d="M2560.6 1059.6l-48.1-129.5 2.4 110.8z"/><path stroke="#60effd" d="M2514.9 1040.9l-.3 113.4 46-94.7z"/><path stroke="#97ff6d" d="M2514.9 1040.9l-38.8 34.2 38.5 79.2z"/><path stroke="#ffea1c" d="M2496.5 894.74l18.4 146.16-2.4-110.8z"/><path stroke="#ffa343" d="M734.49 107.34l65.7 1.38-13.52-30.026z"/><path stroke="#4ef90f" d="M1438.3 1057.8l-60.4-66.64-23.3 201.24z"/><path stroke="#ff986c" d="M1307.9 1425l-95-136.7 11.6 169.9z"/><path stroke="#a04eff" d="M1307.9 1425l-36.9-242.3-58.1 105.6z"/><path stroke="#5bff00" d="M1129.7 1557.3l178.2-132.3-83.4 33.2z"/><path stroke="#65ff7a" d="M1307.9 1425l63.3-45.3-16.6-187.3z"/><path stroke="#fffc6b" d="M1307.9 1425l46.7-232.6-83.6-9.7z"/><path stroke="#dc94ff" d="M518.8 755.78l-6.98-82.82 25.3-6.42z"/><path stroke="#a617e5" d="M590.29 866.5l-52.41 101.51-.38-26.53z"/><path stroke="#ffba31" d="M537.5 941.48l60.16-132.17-7.37 57.19z"/><path stroke="#b87fff" d="M614.9 384.1l34.2-211.42 61.49 93.26z"/><path stroke="#4ef5ff" d="M786.67 78.694L710.59 265.94l-61.49-93.26z"/><path stroke="#ffc700" d="M734.49 107.34l52.18-28.646L649.1 172.68z"/><path stroke="#21ff15" d="M2342.4 956.36l-91.8 61.34 86.5-65.04z"/><path stroke="#73d7ff" d="M2431.2 775.43l-88.8 180.93-5.3-3.7z"/><path stroke="#a6beff" d="M913.48 273.97l16.48-128 137.74 21.74z"/><path stroke="#ff0c80" d="M929.96 145.97l-16.48 128-56.18-142.83z"/><path stroke="#22deff" d="M581.89 685.35l-4.46 2.47-9.01-3.28z"/><path stroke="#ff0714" d="M581.89 685.35l40.63 6.51-24.45-.62z"/><path stroke="#80ff59" d="M581.89 685.35l16.18 5.89-20.64-3.42z"/><path stroke="#ff8fa7" d="M597.66 809.31L571.9 662.52l31.46-1.43z"/><path stroke="#ff6e47" d="M494.13 669.8l24.39 10.06 14.58 1.62z"/><path stroke="#27ff06" d="M494.13 669.8l85.1-93.35-60.71 103.41z"/><path stroke="#7fffbd" d="M494.13 669.8l38.97 11.68-7.39-4.31z"/><path stroke="#ff0e9b" d="M2014 61.277L2233.2 170.4l-128.3-66.39z"/><path stroke="#3058ff" d="M1928.1 91.402l85.9-30.125 90.9 42.733z"/><path stroke="#a3ff72" d="M1372.8 1587.4l-226.2 8.4 224.4-4.4z"/><path stroke="#f3ff4b" d="M1372.8 1587.4l-1.6-207.7-63.3 45.3z"/><path stroke="#caffa2" d="M1372.8 1587.4l69.9-4.6-71.5-203.1z"/><path stroke="#a3ff16" d="M1372.8 1587.4l-1.8 4 71.7-8.6z"/><path stroke="#0002ff" d="M1091 783.42l12.7-26.3-30.1-93.7z"/><path stroke="#ff0200" d="M1091 783.42l48.3 42.28-35.6-68.58z"/><path stroke="#01fdff" d="M466.4 926.82l55.37-79.61-10.65-7.12z"/><path stroke="#21ff00" d="M521.77 847.21l-55.37 79.61-1.14 53.82z"/><path stroke="#ff9f00" d="M603.36 661.09l2 105.1-7.7 43.12z"/><path stroke="#46ffab" d="M590.29 866.5l7.37-57.19 7.7-43.12z"/><path stroke="#00b9ff" d="M2269 1008.8l-18.4 8.9 91.8-61.34z"/><path stroke="#ff7fea" d="M2269 1008.8l-152.7 3.7 134.3 5.2z"/><path stroke="#0a29ff" d="M622.52 691.86l-40.63-6.51L683 611.28z"/><path stroke="#7f15ff" d="M684.81 531.65L683 611.28l-101.11 74.07z"/><path stroke="#33eb33" d="M1057.2 673.53l-42-118.14 58.4 108.03z"/><path stroke="#ffb107" d="M1170.1 878.22l-27.9 189.98 125.1-160.22z"/><path stroke="#556aff" d="M1354.6 1192.4l23.3-201.24-110.6-83.18z"/><path stroke="#ff6b12" d="M1271 1182.7l-3.7-274.72-125.1 160.22z"/><path stroke="#ff72cb" d="M1354.6 1192.4l-87.3-284.42 3.7 274.72z"/><path stroke="#3cff45" d="M683 611.28l1.81-79.63-1.34 84.19z"/><path stroke="#68a4ff" d="M521.77 847.21l-56.51 133.43 91.99-115.15z"/><path stroke="#38afff" d="M557.25 865.49l-91.99 115.15 72.62-12.63z"/><path stroke="#0a8fff" d="M590.29 866.5l-33.04-1.01-19.37 102.52z"/><path stroke="#ff03df" d="M876.92 627.69l138.28-72.3-25.36 66.4z"/><path stroke="#f795ff" d="M1129.7 1557.3l127.7 38.2 50.5-170.5z"/><path stroke="#ffb829" d="M1129.7 1557.3l-38.2 21.8 165.9 16.4z"/><path stroke="#4b65ff" d="M1091.5 1579.1l55.1 16.7 110.8-.3z"/><path stroke="#fffcd2" d="M1257.4 1595.5l115.4-8.1-64.9-162.4z"/><path stroke="#ff0073" d="M1257.4 1595.5l-110.8.3 226.2-8.4z"/><path stroke="#cc2fff" d="M598.07 691.24l-31.21-2.05 10.57-1.37z"/><path stroke="#71ef04" d="M598.44 448.61l-10.88-177.79L614.9 384.1z"/><path stroke="#ffff9d" d="M598.44 448.61l-26.46-86.3 15.58-91.49z"/><path stroke="#ffe44e" d="M614.9 384.1l-27.34-113.28 61.54-98.14z"/><path stroke="#1cffbc" d="M1683.4 988.85l211.5-12.1-190.5-26.45z"/><path stroke="#ff9e3c" d="M1683.4 988.85l21-38.55-192.4-4.86z"/><path stroke="#e54420" d="M1704.4 950.3l190.5 26.45 48.1-13.78z"/><path stroke="#ffa900" d="M2014 61.277l-85.9 30.125-147.5-23.789z"/><path stroke="#00ff2c" d="M1713.9 180.71l66.7-113.097 147.5 23.789z"/><path stroke="#8bff7f" d="M989.84 621.79l25.36-66.4-4.1 85.18z"/><path stroke="#ffc424" d="M1011.1 640.57l4.1-85.18 42 118.14z"/><path stroke="#ffa3ff" d="M684.81 531.65l43.54 131.98-44.88-47.79z"/><path stroke="#ff3681" d="M728.35 663.63l-43.54-131.98 192.11 96.04z"/><path stroke="#c3ff4d" d="M1057.2 673.53l16.4-10.11 6.5 45.44z"/><path stroke="#3841ff" d="M1103.7 757.12l-23.6-48.26-6.5-45.44z"/><path stroke="#88ff5e" d="M442.64 691.23l136.59-114.78-85.1 93.35z"/><path stroke="#88ffc2" d="M499.06 476.27l80.17 100.18-136.59 114.78z"/><path stroke="#82ffce" d="M499.06 476.27l99.38-27.66-19.21 127.84z"/><path stroke="#c9ff10" d="M499.06 476.27l72.92-113.96 26.46 86.3z"/><path stroke="#2da8ff" d="M1403.5 918.19l34.8 139.61 73.7-112.36z"/><path stroke="#e3ff27" d="M1403.5 918.19l-25.6 72.97 60.4 66.64z"/><path stroke="#ffc287" d="M1267.3 907.98l110.6 83.18 25.6-72.97z"/><path stroke="#be00ff" d="M1713.9 180.71l-187.3-40.02 136.6-36.82z"/><path stroke="#7af4ff" d="M1663.2 103.87l117.4-36.257-66.7 113.097z"/><path stroke="#6573ff" d="M603.36 661.09l-9.23 3.09 11.23 102.01z"/><path stroke="#e2ff16" d="M518.8 755.78l-7.68 84.31 10.7-165.15z"/><path stroke="#0056ff" d="M521.82 674.94l-10.7 165.15 10.65 7.12z"/><path stroke="#3dff60" d="M511.82 672.96l6.98 82.82 3.02-80.84z"/><path stroke="#50c6ff" d="M516.2 694.92l9.51-17.75 6.1 12.7z"/><path stroke="#ffe200" d="M494.13 669.8l22.07 25.12-73.56-3.69z"/><path stroke="#7020e5" d="M516.2 694.92l-22.07-25.12 31.58 7.37z"/><path stroke="#73ffd9" d="M542.16 784.88l-20.34-109.94-.05 172.27z"/><path stroke="#dc1fff" d="M557.25 865.49l-15.09-80.61-20.39 62.33z"/><path stroke="#ed4dff" d="M2269 1008.8l-136.6-1.5-16.1 5.2z"/><path stroke="#a2ff58" d="M605.36 766.19l-11.23-102.01-13.23 110.44z"/><path stroke="#235dff" d="M557.25 865.49l33.04 1.01-9.39-91.88z"/><path stroke="#cd33ff" d="M605.36 766.19l-24.46 8.43 9.39 91.88z"/><path stroke="#6bffb8" d="M557.25 865.49l23.65-90.87-38.74 10.26z"/><path stroke="#ffb1f3" d="M1358.5 92.135l101.9 39.545-94.3 1.65z"/><path stroke="#ea71ff" d="M1358.5 92.135l7.6 41.195-158.4-39.222z"/><path stroke="#60ff8a" d="M594.13 664.18l-31.37 27.94 18.14 82.5z"/><path stroke="#ff5fef" d="M542.16 784.88l20.6-92.76-40.94-17.18z"/><path stroke="#37ff30" d="M580.9 774.62l-18.14-82.5-20.6 92.76z"/><path stroke="#ff8116" d="M2304.4 1589.8l-89.6 10.2 79-178.8z"/><path stroke="#ff747a" d="M579.1 693.7l-47.29-3.83 35.05-.68z"/><path stroke="#cbff08" d="M579.1 693.7l-62.9 1.22 15.61-5.05z"/><path stroke="#ffd4cd" d="M598.07 691.24l-18.97 2.46-12.24-4.51z"/><path stroke="#3773ff" d="M2444.7 463.72l38.1-15.89-51.6-69.32z"/><path stroke="#8e00ff" d="M2444.7 463.72l-1.6 82.58 39.7-98.47z"/><path stroke="#ff631b" d="M2269 1008.8l-69 17.5-67.6-19z"/><path stroke="#ff4323" d="M566.9 669.9l-4.14 22.22 31.37-27.94z"/><path stroke="#fcc6ff" d="M566.9 669.9l-45.08 5.04 40.94 17.18z"/><path stroke="#cc91ff" d="M392.57 856.57l-14.24-152.59 64.31-12.75z"/><path stroke="#ff4b56" d="M378.33 703.98l120.73-227.71-56.42 214.96z"/><path stroke="#588cff" d="M989.6 638.96l-112.68-11.27 112.92-5.9z"/><path stroke="#e056ff" d="M2431.2 775.43l-5.1-64.91 13.7 5.72z"/><path stroke="#2344ff" d="M2426.1 710.52l17-164.22-3.3 169.94z"/><path stroke="#8c40ff" d="M2439.8 716.24l-97.4 240.12 88.8-180.93z"/><path stroke="#ff54ea" d="M683.47 615.84l44.88 47.79-99.77 22.19z"/><path stroke="#ff84c4" d="M2093 1551.1l200.8-129.9-79 178.8z"/><path stroke="#d3ffc6" d="M2283.7 1149.6l-83.7-123.3 69-17.5z"/><path stroke="#39ffa1" d="M2283.7 1149.6l-105.9 45.3 22.2-168.6z"/><path stroke="#372dff" d="M2283.7 1149.6l10.1 271.6-116-226.3z"/><path stroke="red" d="M1066.2 696.25l-9-22.72 22.9 35.33z"/><path stroke="#e3ff06" d="M1057.2 673.53l9 22.72-22.7-22.79z"/><path stroke="#ffbbf1" d="M1067.7 167.71l-137.74-21.74 176.84-24.43z"/><path stroke="#efff84" d="M1106.8 121.54l100.9-27.432-140 73.602z"/><path stroke="#ffe1a0" d="M458.66 811.74l-16.02-120.51 73.56 3.69z"/><path stroke="#c96828" d="M392.57 856.57l50.07-165.34 16.02 120.51z"/><path stroke="#1eb3ff" d="M2157.5 1419.5l136.3 1.7-200.8 129.9z"/><path stroke="#ffd044" d="M2157.5 1419.5l20.3-224.6 116 226.3z"/><path stroke="#cdff3d" d="M2233.2 170.4L2014 61.277l98.3 42.513z"/><path stroke="#006fff" d="M1068.6 698.62l-2.4-2.37 13.9 12.61z"/><path stroke="#ffcf9f" d="M1170.1 878.22l97.2 29.76-104.5-59.01z"/><path stroke="#9bff00" d="M1103.7 757.12l35.6 68.58 23.5 23.27z"/><path stroke="#4aedff" d="M1170.1 878.22l-7.3-29.25-23.5-23.27z"/><path stroke="#43ff9f" d="M728.35 663.63L598.68 731.4l29.9-45.58z"/><path stroke="#fff400" d="M696.73 713.28l-98.05 18.12 129.67-67.77z"/><path stroke="#589dff" d="M598.68 731.4L582.81 709l45.77-23.18z"/><path stroke="#52fff4" d="M1162.8 848.97l104.5 59.01 96.5-2.44z"/><path stroke="#ff82ed" d="M1363.8 905.54l-96.5 2.44 136.2 10.21z"/><path stroke="#8c80ff" d="M1095.9 758.76l-27.3-60.14 11.5 10.24z"/><path stroke="#ff570d" d="M1103.7 757.12l59.1 91.85-66.9-90.21z"/><path stroke="#ff1878" d="M1080.1 708.86l23.6 48.26-7.8 1.64z"/><path stroke="#ff974d" d="M1526.6 140.69l-66.2-9.01 60.6-13.42z"/><path stroke="#00ff36" d="M1358.5 92.135L1521 118.26l-60.6 13.42z"/><path stroke="#0069ff" d="M1663.2 103.87l-136.6 36.82-5.6-22.43z"/><path stroke="#3cff8e" d="M2431.2 378.51l-198-208.11-6.3 13.56z"/><path stroke="#b6ffb9" d="M2233.2 170.4l-120.9-66.61 114.6 80.17z"/><path stroke="#ffc4a6" d="M1070.8 701.17l-4.6-4.92 2.4 2.37z"/><path stroke="#ceff17" d="M1070.8 701.17l-13.6-27.64-13.7-.07z"/><path stroke="#00cdff" d="M1070.8 701.17l-59.7-60.6 46.1 32.96z"/><path stroke="#ff2fca" d="M1070.8 701.17l-80.96-79.38 21.26 18.78z"/><path stroke="#f44fff" d="M1070.8 701.17l-81.2-62.21.24-17.17z"/><path stroke="#ffead4" d="M1070.8 701.17l-27.3-27.71 22.7 22.79z"/><path stroke="#ff65db" d="M1095.9 758.76l-25.1-57.59-2.2-2.55z"/><path stroke="#1dffca" d="M2151.8 1072.8l-19.4-65.5 67.6 19z"/><path stroke="#ff7dcf" d="M2151.8 1072.8l48.2-46.5-22.2 168.6z"/><path stroke="#ff002d" d="M1070.8 701.17l-113.95-60.99 32.75-1.22z"/><path stroke="#ff1116" d="M876.92 627.69l112.68 11.27-32.75 1.22z"/><path stroke="#d7ffd4" d="M876.92 627.69l79.93 12.49-228.5 23.45z"/><path stroke="#5b3eff" d="M1070.8 701.17l-29-13.77-84.95-47.22z"/><path stroke="#4dd9ff" d="M1070.8 701.17l-113.95-60.99 84.95 47.22z"/><path stroke="#0fff37" d="M392.57 856.57L323 884.47l55.33-180.49z"/><path stroke="#e82cff" d="M434.12 1196.1l-41.55-339.53 66.09-44.83z"/><path stroke="#1dffc6" d="M1106.8 121.54l-176.84 24.43 60.46-13.79z"/><path stroke="#a5ff73" d="M351.96 1155.2L323 884.47l69.57-27.9z"/><path stroke="#ff69ba" d="M392.57 856.57l41.55 339.53-82.16-40.9z"/><path stroke="#88ffbc" d="M351.96 1155.2l82.16 40.9-22.67 152.5z"/><path stroke="#69ff67" d="M1945.4 974.8l-2.4-11.83 173.3 49.53z"/><path stroke="#0594ff" d="M1945.4 974.8l-241-24.5 238.6 12.67z"/><path stroke="#ad31ff" d="M555.25 1478.9l44.41-42.3-7.73 25.1z"/><path stroke="#72ff05" d="M1070.8 701.17l.2-3.59.1-3.51z"/><path stroke="#daffb2" d="M800.19 108.72l-65.7-1.38 18.79-14.956z"/><path stroke="#ff0073" d="M649.1 172.68l104.18-80.296-18.79 14.956z"/><path stroke="#cdffd5" d="M2411.6 415.81l19.6-37.3-204.3-194.55z"/><path stroke="#f8ceff" d="M2444.7 463.72l-13.5-85.21-19.6 37.3z"/><path stroke="#8dff05" d="M2293.8 1421.2l50.8-21.5-40.2 190.1z"/><path stroke="#b8ffb5" d="M637.61 1471.5l-82.36 7.4 36.68-17.2z"/><path stroke="#bcfffc" d="M2454.9 630.99l-15.1 85.25 3.3-169.94z"/><path stroke="#ffad13" d="M637.61 1471.5l-45.68-9.8 23.39-14.9z"/><path stroke="#66d3ff" d="M2347 1270.9l-53.2 150.3-10.1-271.6z"/><path stroke="#66fff7" d="M2344.6 1399.7l-50.8 21.5 53.2-150.3z"/><path stroke="#8aff9a" d="M696.73 713.28l31.62-49.65 34.23-3.46z"/><path stroke="#b9c4ff" d="M956.85 640.18l-194.27 19.99-34.23 3.46z"/><path stroke="#ff00c8" d="M349.95 666.24l28.38 37.74L323 884.47z"/><path stroke="#ffc596" d="M2366.6 1585.2l-151.8 14.8 89.6-10.2z"/><path stroke="#ff7d5e" d="M2344.6 1399.7l22 185.5-62.2 4.6z"/><path stroke="#ff0645" d="M591.93 1461.7l7.73-25.1 16.3 6z"/><path stroke="#ff20e7" d="M591.93 1461.7l24.03-19.1-.64 4.2z"/><path stroke="#00ff20" d="M929.96 145.97l-67.34-72.133 127.8 58.343z"/><path stroke="#ff7da0" d="M929.96 145.97l-72.66-14.83 5.32-57.303z"/><path stroke="#c4a0ff" d="M800.19 108.72l62.43-34.883-5.32 57.303z"/><path stroke="#ff628c" d="M753.28 92.384l109.34-18.547-62.43 34.883z"/><path stroke="#ff2563" d="M582.81 709l-19.09 2.24 64.86-25.42z"/><path stroke="#2d27ff" d="M686.89 581.33L683 611.28l.47 4.56z"/><path stroke="#f06bff" d="M686.89 581.33l-64.37 110.53L683 611.28z"/><path stroke="#65ff51" d="M615.32 1446.8l.64-4.2-5.78 3.2z"/><path stroke="#00d1ff" d="M615.32 1446.8l-5.14-1-6.65 9.7z"/><path stroke="#ff3e91" d="M640.34 1452.1l-25.02-5.3-11.79 8.7z"/><path stroke="#ff8b00" d="M637.61 1471.5l-22.29-24.7 25.02 5.3z"/><path stroke="#1cff10" d="M545.34 714.52l37.47-5.52 15.87 22.4z"/><path stroke="#ff00b2" d="M545.34 714.52l18.38-3.28 19.09-2.24z"/><path stroke="#01ff4e" d="M956.85 640.18l16.94-2.24-211.21 22.23z"/><path stroke="#6fff34" d="M542.6 714.6l2.74-.08 53.34 16.88z"/><path stroke="#99ffe2" d="M640.34 1452.1l-36.81 3.4 25.02 5.4z"/><path stroke="#ff1bfb" d="M1071 697.58l-.2 3.59 7.4 1.5z"/><path stroke="#2b66ff" d="M1078.2 702.67l-7.1-8.6-.1 3.51z"/><path stroke="#16ffba" d="M1078.2 702.67l-7.4-1.5 25.1 57.59z"/><path stroke="#fff78f" d="M622.55 744.88l-23.87-13.48 98.05-18.12z"/><path stroke="#ff6799" d="M1070.8 701.17l-58.3-49.62-55.65-11.37z"/><path stroke="#a0ffd8" d="M1070.8 701.17l-97.01-63.23 38.71 13.61z"/><path stroke="#fa73ff" d="M973.79 637.94l-16.94 2.24 55.65 11.37z"/><path stroke="#23c1ff" d="M539.9 715.01l2.7-.41 56.08 16.8z"/><path stroke="#ff2b99" d="M587.56 270.82l-15.58 91.49-36.54-36.52z"/><path stroke="#7cc8ff" d="M499.06 476.27l36.38-150.48 36.54 36.52z"/><path stroke="#a2ff05" d="M535.44 325.79L649.1 172.68l-61.54 98.14z"/><path stroke="#ab20ff" d="M555.25 1478.9l-68.29-85.4 49.87 40.8z"/><path stroke="#97ff00" d="M536.83 1434.3l62.83 2.3-44.41 42.3z"/><path stroke="#c9ff08" d="M1162.8 848.97l201 56.57-129.8-.86z"/><path stroke="#28ef28" d="M1403.5 918.19l108.5 27.25-2.4-5.59z"/><path stroke="#ff6cc1" d="M1509.6 939.85l-145.8-34.31 39.7 12.65z"/><path stroke="#5dff88" d="M579.1 693.7l22.19 9.02-85.09-7.8z"/><path stroke="#ff36d2" d="M579.1 693.7l18.97-2.46 3.22 11.48z"/><path stroke="#a95eff" d="M622.52 691.86l-21.23 10.86-3.22-11.48z"/><path stroke="#47e92d" d="M686.89 581.33l-85.6 121.39 21.23-10.86z"/><path stroke="#93faff" d="M469.64 1470.1l-35.52-274 52.84 197.4z"/><path stroke="#30ff52" d="M486.96 1393.5l68.29 85.4-85.61-8.8z"/><path stroke="#2dfcff" d="M469.64 1470.1l-58.19-121.5 22.67-152.5z"/><path stroke="#11ff0d" d="M563.25 1501.3l-93.61-31.2 85.61 8.8z"/><path stroke="#ff17f1" d="M637.61 1471.5l-74.36 29.8-8-22.4z"/><path stroke="#ffc2c2" d="M411.45 1348.6l-28.39 14.8-31.1-208.2z"/><path stroke="#ff97e6" d="M411.45 1348.6l58.19 121.5-86.58-106.7z"/><path stroke="#485dff" d="M1063.9 676.22l7.2 17.85 7.1 8.6z"/><path stroke="#81fd27" d="M1070.8 701.17l.3-7.1-7.2-17.85z"/><path stroke="#a8ff8e" d="M1234 904.68l-109.5-88.14 38.3 32.43z"/><path stroke="#ff259f" d="M1095.9 758.76l66.9 90.21-38.3-32.43z"/><path stroke="#c981ff" d="M542.6 714.6l-2.7.41-2.26.09z"/><path stroke="#61a4ff" d="M539.9 715.01l58.78 16.39-61.04-16.3z"/><path stroke="#8ccdff" d="M535.44 325.79l-36.38 150.48-47.3-3.13z"/><path stroke="#8bff4c" d="M451.76 473.14l-73.43 230.84-28.38-37.74z"/><path stroke="#43ff9c" d="M451.76 473.14l47.3 3.13-120.73 227.71z"/><path stroke="#56ffc2" d="M1305.5 1451.6l86.2 120.5-141.6 14.9z"/><path stroke="#ffce2e" d="M323 884.47l28.96 270.73-29.03-21.2z"/><path stroke="#ff0500" d="M383.06 1363.4L322.93 1134l29.03 21.2z"/><path stroke="#ffa73e" d="M1521 118.26l-162.5-26.125-6-.486z"/><path stroke="#81ff2b" d="M645.96 1450.2l-5.62 1.9-11.79 8.8z"/><path stroke="#ff55e8" d="M2269 1008.8l73.4-52.44 6.3 50.34z"/><path stroke="#84ff18" d="M2283.7 1149.6l65-142.9-1.7 264.2z"/><path stroke="#75ffd2" d="M2342.4 956.36l97.4-240.12-91.1 290.46z"/><path stroke="#e7ff8e" d="M2348.7 1006.7l-65 142.9-14.7-140.8z"/><path stroke="#ffd659" d="M1755.1 130.1l-91.9-26.23-142.2 14.39z"/><path stroke="#4602ff" d="M1780.6 67.613l-117.4 36.257 91.9 26.23z"/><path stroke="#f8ff82" d="M645.96 1450.2l-17.41 10.7 5.62-2z"/><path stroke="#45e9ff" d="M599.66 1436.6l39.3 4.3-23 1.7z"/><path stroke="#c800ff" d="M638.96 1440.9l7 9.3-11.79 8.7z"/><path stroke="#ff1f1d" d="M537.64 715.1l5.21.16-.25-.66z"/><path stroke="#ff0391" d="M647.87 1467.9l-7.53-15.8 5.62-1.9z"/><path stroke="#5effbe" d="M647.87 1467.9l-10.26 3.6 2.73-19.4z"/><path stroke="#61ff61" d="M647.87 1467.9l-84.62 33.4 74.36-29.8z"/><path stroke="#38daff" d="M1382.5 1029.1l-113.5-25.3 94.8-98.26z"/><path stroke="#25aaff" d="M1269 1003.8l-35-99.12 129.8.86z"/><path stroke="#b900ff" d="M563.72 711.24l-18.38 3.28.5.69z"/><path stroke="#fffa08" d="M545.34 714.52l-2.74.08 3.24.61z"/><path stroke="#ff8cd6" d="M542.6 714.6l.25.66 2.99-.05z"/><path stroke="#ff19c4" d="M563.72 711.24l-17.88 3.97 3.24-.13z"/><path stroke="#ff52c7" d="M638.96 1440.9l-4.79 18-9.86-13.1z"/><path stroke="#ff76e3" d="M624.31 1445.8l9.86 13.1-5.62 2z"/><path stroke="#37c937" d="M624.31 1445.8l4.24 15.1-25.02-5.4z"/><path stroke="#63ff8d" d="M624.31 1445.8l-20.78 9.7 6.65-9.7z"/><path stroke="#ff9349" d="M615.96 1442.6l8.35 3.2h-14.13z"/><path stroke="#f9ffcb" d="M615.96 1442.6l23-1.7-14.65 4.9z"/><path stroke="#09f2ff" d="M634.85 1419l13.02 48.9-1.91-17.7z"/><path stroke="#ffdc7e" d="M634.85 1419l11.11 31.2-7-9.3z"/><path stroke="#0907ff" d="M599.66 1436.6l35.19-17.6 4.11 21.9z"/><path stroke="#93ff09" d="M552.67 1447l-65.71-53.5 41.59 45.3z"/><path stroke="#8eff5b" d="M599.66 1436.6l-46.99 10.4 82.18-28z"/><path stroke="#ff1991" d="M536.83 1434.3l-49.87-40.8 65.71 53.5z"/><path stroke="#ff3832" d="M552.67 1447l-24.12-8.2-41.59-45.3z"/><path stroke="#ff78ab" d="M552.67 1447l46.99-10.4-62.83-2.3z"/><path stroke="#7d2eff" d="M1352.5 91.649l6 .486-133.8-3.728z"/><path stroke="#ffb9eb" d="M1224.7 88.407l133.8 3.728-150.8 1.973z"/><path stroke="#c6d9ff" d="M1207.7 94.108l-100.9 27.432 117.9-33.133z"/><path stroke="#77e134" d="M1391.7 1572.1l-86.2-120.5 64.8-239.3z"/><path stroke="#2fc6ff" d="M1269 1003.8l113.5 25.3-12.2 183.2z"/><path stroke="#ff466c" d="M552.67 1447l4.55 42.8 77.63-70.8z"/><path stroke="#ff0074" d="M557.22 1489.8l90.65-21.9-13.02-48.9z"/><path stroke="#ffd7c9" d="M563.25 1501.3l-6.03-11.5-87.58-19.7z"/><path stroke="#ff7eb8" d="M647.87 1467.9l-90.65 21.9 6.03 11.5z"/><path stroke="#8cff4c" d="M2177.8 1194.9l-15.4 59-10.6-181.1z"/><path stroke="#ff75ed" d="M2157.5 1419.5l4.9-165.6 15.4-59z"/><path stroke="#ff9e09" d="M651.34 142.08l-2.24 30.6-113.66 153.11z"/><path stroke="#6c82ff" d="M753.28 92.384L649.1 172.68l2.24-30.6z"/><path stroke="#50c1ff" d="M1104.3 762.48l-40.4-86.26 14.3 26.45z"/><path stroke="#3523ff" d="M1124.5 816.54l-20.2-54.06-8.4-3.72z"/><path stroke="#f571a7" d="M1078.2 702.67l17.7 56.09 8.4 3.72z"/><path stroke="#4200ff" d="M1082.3 685.84l-18.4-9.62 40.4 86.26z"/><path stroke="#d3ff77" d="M580.73 708.74l47.85-22.92-64.86 25.42z"/><path stroke="#3095ff" d="M549.08 715.08l31.65-6.34-17.01 2.5z"/><path stroke="#7457ff" d="M1293.6 1225.9l76.7-13.6-64.8 239.3z"/><path stroke="#23ffe8" d="M1269 1003.8l101.3 208.5-76.7 13.6z"/><path stroke="#d4f1e2" d="M1627.7 973.06l-118.1-33.21 2.4 5.59z"/><path stroke="#0575ff" d="M1627.7 973.06L1512 945.44l192.4 4.86z"/><path stroke="#a9ff79" d="M1627.7 973.06l76.7-22.76 241 24.5z"/><path stroke="#ff203f" d="M552.67 1447l-65.71-53.5 18.33 24.1z"/><path stroke="#ff29d6" d="M552.67 1447l-47.38-29.4 51.93 72.2z"/><path stroke="#ff4500" d="M2014 61.277l-233.4 6.336 155.5 58.587z"/><path stroke="#8500f3" d="M1936.1 126.2l176.2-22.41-98.3-42.513z"/><path stroke="#03f" d="M1755.1 130.1l181-3.9-155.5-58.587z"/><path stroke="#e4f4ff" d="M537.64 715.1l61.04 16.3-1.93 1.42z"/><path stroke="#b5ff97" d="M542.85 715.26l-5.21-.16 59.11 17.72z"/><path stroke="#b5ff5d" d="M542.85 715.26l53.9 17.56-50.91-17.61z"/><path stroke="#ffcaf3" d="M596.75 732.82l1.93-1.42 23.87 13.48z"/><path stroke="#73ff44" d="M545.84 715.21l50.91 17.61-47.67-17.74z"/><path stroke="#e454ff" d="M347.01 676.67l104.75-203.53-101.81 193.1z"/><path stroke="#2bbfff" d="M347.01 676.67l2.94-10.43L323 884.47z"/><path stroke="#ffa37a" d="M1082.3 685.84l-4.4-30.58-14 20.96z"/><path stroke="#b83cff" d="M1070.8 701.17l-6.9-24.95 14-20.96z"/><path stroke="#ff42df" d="M434.12 1196.1l16.49 87.7 36.35 109.7z"/><path stroke="#7d34ff" d="M450.61 1283.8l54.68 133.8-18.33-24.1z"/><path stroke="#26ff7b" d="M1235.6 1474.9l14.5 112.1-114.7-1.1z"/><path stroke="#67e770" d="M1250.1 1587l-14.5-112.1 69.9-23.3z"/><path stroke="#ff24cc" d="M609.66 702.67l-28.93 6.07-31.65 6.34z"/><path stroke="#67ffca" d="M609.66 702.67l18.92-16.85-47.85 22.92z"/><path stroke="#1dff15" d="M609.66 702.67l-60.58 12.41 47.67 17.74z"/><path stroke="#111f13" d="M2323.5 1347l65.4 242.8-44.3-190.1z"/><path stroke="#0056ff" d="M2344.6 1399.7l44.3 190.1-22.3-4.6z"/><path stroke="#cbffc0" d="M1479.7 1011.3l-97.2 17.8-18.7-123.56z"/><path stroke="#f52fff" d="M1479.7 1011.3l-115.9-105.76 145.8 34.31z"/><path stroke="#a839ff" d="M2347 1270.9l1.7-264.2-28.4 202.4z"/><path stroke="#65ff8a" d="M2320.3 1209.1l3.2 137.9 21.1 52.7z"/><path stroke="#ff2024" d="M2347 1270.9l-26.7-61.8 24.3 190.6z"/><path stroke="#a4ff93" d="M306.57 880.05l16.43 4.42-.07 249.53z"/><path stroke="#ff4634" d="M306.57 880.05l40.44-203.38L323 884.47z"/><path stroke="#ffcf1e" d="M718.72 670.71l-109.06 31.96-12.91 30.15z"/><path stroke="#ff3c11" d="M696.73 713.28l65.85-53.11-43.86 10.54z"/><path stroke="#ffdc6b" d="M622.55 744.88l96.17-74.17-121.97 62.11z"/><path stroke="#4256ff" d="M718.72 670.71l-96.17 74.17 74.18-31.6z"/><path stroke="#2affde" d="M505.29 1417.6l-91.23-30.6 143.16 102.8z"/><path stroke="#b945ff" d="M557.22 1489.8L414.06 1387l55.58 83.1z"/><path stroke="#63f" d="M505.29 1417.6l-54.68-133.8-36.55 103.2z"/><path stroke="#8c76ff" d="M469.64 1470.1l-55.58-83.1-31-23.6z"/><path stroke="#cbffc0" d="M414.06 1387l-91.13-253 60.13 229.4z"/><path stroke="#6054ff" d="M1224.7 88.407l-117.9 33.133 66.2 21.77z"/><path stroke="#8eff31" d="M2111.9 1029.5l4.4-17 16.1-5.2z"/><path stroke="#bff2ff" d="M2162.4 1253.9l-50.5-224.4 39.9 43.3z"/><path stroke="#c6ff3f" d="M2151.8 1072.8l-39.9-43.3 20.5-22.2z"/><path stroke="#289fff" d="M2454.9 630.99l-11.8-84.69-21.4-46.49z"/><path stroke="#d9ffce" d="M2411.6 415.81l10.1 84 23-36.09z"/><path stroke="#fc3dff" d="M2421.7 499.81l21.4 46.49 1.6-82.58z"/><path stroke="#b979ff" d="M306.57 880.05L322.93 1134l29.81 44z"/><path stroke="#3f00ff" d="M352.74 1178l-29.81-44 91.13 253z"/><path stroke="#ecffae" d="M352.74 1178l61.32 209 36.55-103.2z"/><path stroke="#251fff" d="M2439.8 716.24l15.1-85.25-28.1 25.06z"/><path stroke="#55ff10" d="M2421.7 499.81l5.1 156.24 28.1-25.06z"/><path stroke="#ffc319" d="M2411.6 415.81l-184.7-231.85 38.1 100.18z"/><path stroke="#00daff" d="M458.66 811.74l-1.98 196.96-22.56 187.4z"/><path stroke="#c813ff" d="M456.68 1008.7l-6.07 275.1-16.49-87.7z"/><path stroke="#0030ff" d="M2348.7 1006.7l-30.1 23.6 1.7 178.8z"/><path stroke="#ffb095" d="M1100.8 661.54l-18.5 24.3 22 76.64z"/><path stroke="#dc47ff" d="M1100.8 661.54l-22.9-6.28 4.4 30.58z"/><path stroke="#fff800" d="M497.25 413.19l-45.49 59.95-104.75 203.53z"/><path stroke="#58ffd4" d="M451.76 473.14l45.49-59.95 38.19-87.4z"/><path stroke="#a75fff" d="M458.66 811.74l57.54-116.82-45.14 98.99z"/><path stroke="#08f" d="M471.06 793.91l-14.38 214.79 1.98-196.96z"/><path stroke="#ffdd6f" d="M1106.8 121.54l-116.38 10.64 11.48 17.33z"/><path stroke="#d3ff18" d="M862.62 73.837l139.28 75.673-11.48-17.33z"/><path stroke="#6b45ff" d="M1173 143.31l-66.2-21.77-104.9 27.97z"/><path stroke="#c2ff57" d="M1636.5 170.23l118.6-40.13-234.1-11.84z"/><path stroke="#6b84ff" d="M1124.5 816.54l18.9 8.28-39.1-62.34z"/><path stroke="#44ff8a" d="M1234 904.68l-90.6-79.86-18.9-8.28z"/><path stroke="#80efff" d="M2116.3 1012.5l-177.1-50.08 6.2 12.38z"/><path stroke="#f6ff0a" d="M2116.3 1012.5l-4.4 17-172.7-67.08z"/><path stroke="#ffd65c" d="M2086.4 1580.7l71.1-161.2-64.5 131.6z"/><path stroke="#e4ffc2" d="M2086.4 1580.7l6.6-29.6 121.8 48.9z"/><path stroke="#a50bff" d="M1521 118.26l-168.5-26.611-47.9 13.791z"/><path stroke="#4893ff" d="M1173 143.31l131.6-37.87-79.9-17.033z"/><path stroke="#fd7bff" d="M1352.5 91.649l-127.8-3.242 79.9 17.033z"/><path stroke="#a886ff" d="M2205 1286.5l-42.6-32.6 17 175.9z"/><path stroke="#4538ff" d="M2086.4 1580.7l93-150.9-21.9-10.3z"/><path stroke="#75ff94" d="M2179.4 1429.8l-17-175.9-4.9 165.6z"/><path stroke="#30ff01" d="M2320.3 1209.1l-48.1 51.9 51.3 86z"/><path stroke="#ff93cb" d="M1509.6 939.85l118.1 33.21-126.4-53.76z"/><path stroke="#04ff70" d="M2205 1286.5l-40-192.7-2.6 160.1z"/><path stroke="#ff90ac" d="M2165 1093.8l-53.1-64.3 50.5 224.4z"/><path stroke="#10ffd8" d="M1432.8 1205.1l-62.5 7.2 12.2-183.2z"/><path stroke="#d2ffce" d="M1432.8 1205.1l-50.3-176 97.2-17.8z"/><path stroke="#ffa23c" d="M1441.2 1464l-70.9-251.7 62.5-7.2z"/><path stroke="#ff1fa5" d="M1391.7 1572.1l-21.4-359.8 70.9 251.7z"/><path stroke="#faa" d="M1240.4 1292.2l28.6-288.4 24.6 222.1z"/><path stroke="#ff0802" d="M1240.4 1292.2l53.2-66.3 11.9 225.7z"/><path stroke="#ff3a6a" d="M1240.4 1292.2l65.1 159.4-69.9 23.3z"/><path stroke="#d4ff09" d="M1070.8 701.17l-32.2-140.27-64.81 77.04z"/><path stroke="#1df76d" d="M1070.8 701.17l7.1-45.91-39.3-94.36z"/><path stroke="#ff3ced" d="M686.89 581.33l-3.42 34.51 18.61 13.8z"/><path stroke="#83e1ff" d="M718.72 670.71l-16.64-41.07-92.42 73.03z"/><path stroke="#f310ff" d="M702.08 629.64l-73.5 56.18-18.92 16.85z"/><path stroke="#00ffc7" d="M683.47 615.84l-54.89 69.98 73.5-56.18z"/><path stroke="#b7e7ff" d="M558.87 782.04l15.41-113.26 23.69 132.98z"/><path stroke="#7fc2ff" d="M598.59 684.52l-.62 117.24-23.69-132.98z"/><path stroke="#e576ff" d="M2411.6 415.81L2265 284.14l69.9 120.52z"/><path stroke="#ff1fc5" d="M2421.7 499.81l-10.1-84-76.7-11.15z"/><path stroke="#10ffbe" d="M574.28 668.78l40.78-5.59-16.47 21.33z"/><path stroke="#9bff22" d="M574.28 668.78l-15.41 113.26-21.81-107.08z"/><path stroke="#ff6a23" d="M762.58 660.17l211.21-22.23-190.09 27.83z"/><path stroke="#a9ff6c" d="M702.08 629.64l16.64 41.07 64.98-4.94z"/><path stroke="#00ff0a" d="M783.7 665.77l-64.98 4.94 43.86-10.54z"/><path stroke="#3306ff" d="M1472.1 1590.3l-80.4-18.2 49.5-108.1z"/><path stroke="#ff30a0" d="M1104.3 762.48l39.1 62.34-25.7-56.67z"/><path stroke="#d484ff" d="M1104.3 762.48l13.4 5.67-16.9-106.61z"/><path stroke="#8029ff" d="M753.79 105.72l-.51-13.336-101.94 49.696z"/><path stroke="#ffbfd2" d="M862.62 73.837L753.28 92.384l.51 13.336z"/><path stroke="#d6ff22" d="M2265.7 1016l-100.7 77.8 40 192.7z"/><path stroke="#ff0367" d="M2320.3 1209.1l-1.7-178.8-52.9-14.3z"/><path stroke="#ffc460" d="M2320.3 1209.1l-54.6-193.1 6.5 245z"/><path stroke="#ffc4d4" d="M2265.7 1016l-60.7 270.5 67.2-25.5z"/><path stroke="#b2ffd1" d="M1117.7 768.15l-13.8-219.12-3.1 112.51z"/><path stroke="#a785ff" d="M1103.9 549.03l-65.3 11.87 39.3 94.36z"/><path stroke="#6dd0ff" d="M1077.9 655.26l22.9 6.28 3.1-112.51z"/><path stroke="#00ff1a" d="M395.66 902.9l-89.09-22.85L352.74 1178z"/><path stroke="#46ff5f" d="M471.06 793.91l-75.4 108.99 61.02 105.8z"/><path stroke="#e54eff" d="M395.66 902.9l54.95 380.9 6.07-275.1z"/><path stroke="#03ffcf" d="M352.74 1178l97.87 105.8-54.95-380.9z"/><path stroke="#66ff9c" d="M395.66 902.9l47.21-262.1-136.3 239.25z"/><path stroke="#98ff13" d="M442.87 640.8l-95.86 35.87-40.44 203.38z"/><path stroke="#9bff00" d="M1001.9 149.51l81.2 76.37 89.9-82.57z"/><path stroke="#d033ff" d="M973.79 637.94l-22.61-41.03-167.48 68.86z"/><path stroke="#a23dff" d="M951.18 596.91l22.61 41.03 64.81-77.04z"/><path stroke="#0457ff" d="M532.27 719.86l46.63 4.07 1.31-2.23z"/><path stroke="#ff1ea1" d="M532.27 719.86l-16.07-24.94 85.09 7.8z"/><path stroke="#a100ff" d="M471.06 793.91l45.14-98.99 16.07 24.94z"/><path stroke="#4fff49" d="M532.27 719.86l69.02-17.14-22.39 21.21z"/><path stroke="#8f20ff" d="M1939.2 962.42l60.1-47.92 36.7-44.84z"/><path stroke="#c4b0ff" d="M497.25 413.19L347.01 676.67l170.15-208.51z"/><path stroke="#dbff00" d="M347.01 676.67l95.86-35.87 74.29-172.64z"/><path stroke="#e574ff" d="M555.31 852.75l3.56-70.71 39.1 19.72z"/><path stroke="#df97f7" d="M615.06 663.19l9.2 106.38-25.67-85.05z"/><path stroke="#0adbff" d="M597.97 801.76l.62-117.24 25.67 85.05z"/><path stroke="#1f80ff" d="M686.89 581.33l-61.41 115.41-24.19 5.98z"/><path stroke="#04ff34" d="M625.48 696.74l-46.58 27.19 22.39-21.21z"/><path stroke="#1aff87" d="M1627.7 973.06l103 5.38-229.4-59.14z"/><path stroke="#61ff10" d="M1730.7 978.44l-103-5.38 317.7 1.74z"/><path stroke="#ff5f70" d="M1939.2 962.42l-208.5 16.02 214.7-3.64z"/><path stroke="#62ff8c" d="M1304.6 105.44l170.6 122.62 45.8-109.8z"/><path stroke="#86e3ff" d="M1636.5 170.23L1521 118.26l-45.8 109.8z"/><path stroke="#bcb2ff" d="M457.25 720.41L395.66 902.9l75.4-108.99z"/><path stroke="#ecaaff" d="M471.06 793.91l61.21-74.05-75.02.55z"/><path stroke="#3bffac" d="M457.25 720.41l-14.38-79.61-47.21 262.1z"/><path stroke="#a4aaff" d="M532.27 719.86l47.94 1.84-31.04-11.04z"/><path stroke="#09ff51" d="M517.16 468.16l56.1-117.65-76.01 62.68z"/><path stroke="#3be3ff" d="M573.26 350.51l-37.82-24.72-38.19 87.4z"/><path stroke="#e6ff32" d="M651.34 142.08l-115.9 183.71 37.82 24.72z"/><path stroke="#ff00de" d="M578.9 723.93l46.58-27.19-15.95 5.9z"/><path stroke="#80ffb1" d="M578.9 723.93l30.63-21.29-29.32 19.06z"/><path stroke="#4affe2" d="M528.59 675.03l8.47-.07 21.81 107.08z"/><path stroke="#bdffbd" d="M2137.1 261.86l-24.8-158.07-176.2 22.41z"/><path stroke="#03dcff" d="M2112.3 103.79l24.8 158.07 89.8-77.9z"/><path stroke="#ffae68" d="M2137.1 261.86l127.9 22.28-38.1-100.18z"/><path stroke="#6395ff" d="M2334.9 404.66L2265 284.14l-127.9-22.28z"/><path stroke="#7a88ff" d="M1235.6 1474.9l-8.8-9.6 13.6-173.1z"/><path stroke="#ff33ad" d="M1755.1 130.1l-118.6 40.13 122.1 38.44z"/><path stroke="#ff929e" d="M1936.1 126.2l-181 3.9 3.5 78.57z"/><path stroke="#ff5ca9" d="M2388.9 1589.8l-65.4-242.8-2.1 238.5z"/><path stroke="#1fff01" d="M2321.4 1585.5l-49.2-324.5-67.2 25.5z"/><path stroke="#ff9583" d="M2388.9 1589.8l-67.5-4.3 45.2-.3z"/><path stroke="#ff139d" d="M2321.4 1585.5l-116.4-299-25.6 143.3z"/><path stroke="#ffaebd" d="M2323.5 1347l-51.3-86 49.2 324.5z"/><path stroke="#f5ff79" d="M573.26 350.51l-56.1 117.65 149.01 2.04z"/><path stroke="#81ff8c" d="M442.87 640.8l223.3-170.6-149.01-2.04z"/><path stroke="#ff7df6" d="M718.26 414.03l7.76 8.41-9.66 7.06z"/><path stroke="#33fffa" d="M705.86 424.65l12.4-10.62-1.9 15.47z"/><path stroke="#33ff31" d="M702.14 443.26l-7-14.68 10.72-3.93z"/><path stroke="#ffe488" d="M2265.7 1016l52.9 14.3 35.6-183.28z"/><path stroke="#ff9009" d="M2354.2 847.02l-35.6 183.28 30.1-23.6z"/><path stroke="#59ff2a" d="M2426.8 656.05l-72.6 190.97 85.6-130.78z"/><path stroke="#ffdbb3" d="M2354.2 847.02l-5.5 159.68 91.1-290.46z"/><path stroke="#00ff6b" d="M700.82 417.83l17.44-3.8-12.4 10.62z"/><path stroke="#ff8f00" d="M695.14 428.58l5.68-10.75 5.04 6.82z"/><path stroke="#7123ff" d="M726.02 422.44l-.43 13.2-9.23-6.14z"/><path stroke="#7eff61" d="M714.34 447.72l-8.48-23.07 10.5 4.85z"/><path stroke="#ff5800" d="M725.59 435.64l-11.25 12.08 2.02-18.22z"/><path stroke="#f0ff00" d="M714.34 447.72l-12.2-4.46 3.72-18.61z"/><path stroke="#3800ff" d="M536.51 850.7l22.36-68.66-3.56 70.71z"/><path stroke="#ffdb87" d="M528.59 675.03l30.28 107.01-22.36 68.66z"/><path stroke="#dfff1b" d="M1001.9 149.51l-54.98 54.26 136.18 22.11z"/><path stroke="#41ffa3" d="M2421.7 499.81l-64.6 19.79 69.7 136.45z"/><path stroke="#ff817f" d="M2421.7 499.81l-86.8-95.15 22.2 114.94z"/><path stroke="#ff2b6c" d="M1038.6 560.9l-48.36-52.66-39.06 88.67z"/><path stroke="#70ff14" d="M990.24 508.24L783.7 665.77l167.48-68.86z"/><path stroke="#ffb080" d="M625.48 696.74l61.41-115.41 13.95 55.53z"/><path stroke="#ffc176" d="M686.89 581.33l15.19 48.31-1.24 7.22z"/><path stroke="#ff36da" d="M2193.9 968.26l-82 61.24 53.1 64.3z"/><path stroke="#fcbcff" d="M2265.7 1016l-71.8-47.74-28.9 125.54z"/><path stroke="#0ff" d="M2354.2 847.02l-160.3 121.24 71.8 47.74z"/><path stroke="#dd6888" d="M702.14 443.26l-14.28-3.62 7.28-11.06z"/><path stroke="#0f0" d="M700.84 636.86l1.24-7.22 9.53-64.07z"/><path stroke="#ff3af9" d="M711.61 565.57l-9.53 64.07 81.62 36.13z"/><path stroke="#ffbc50" d="M733.36 419.32l-7.77 16.32.43-13.2z"/><path stroke="#ffba19" d="M718.26 414.03l15.1 5.29-7.34 3.12z"/><path stroke="#ffdf79" d="M597.97 801.76L549.7 958.65l5.61-105.9z"/><path stroke="#d1ddff" d="M2193.9 968.26l160.3-121.24-256.8 73.24z"/><path stroke="#5f1fff" d="M2111.9 1029.5l82-61.24-96.5-48z"/><path stroke="#a1ceff" d="M1939.2 962.42l158.2-42.16-98.1-5.76z"/><path stroke="#ff6c2b" d="M1939.2 962.42l172.7 67.08-14.5-109.24z"/><path stroke="#ff9e05" d="M1999.3 914.5l98.1 5.76-61.4-50.6z"/><path stroke="#1f00ff" d="M725.59 435.64l7.76 7.14-19.01 4.94z"/><path stroke="#bdadff" d="M1226.8 1465.3l-42.3-342.4 55.9 169.3z"/><path stroke="#ffd000" d="M1184.5 1122.9l84.5-119.1-28.6 288.4z"/><path stroke="#f2ff00" d="M718.26 414.03l9.3-3.17 5.8 8.46z"/><path stroke="#ff001e" d="M733.36 419.32l4.52 9.13-12.29 7.19z"/><path stroke="#ffa003" d="M725.59 435.64l12.29-7.19-4.53 14.33z"/><path stroke="#ffa2b5" d="M1183.2 895.45l50.8 9.23 35 99.12z"/><path stroke="#ff73ae" d="M1234 904.68l-50.8-9.23-39.8-70.63z"/><path stroke="#a4ff2e" d="M1269 1003.8l-84.5 119.1-1.3-227.45z"/><path stroke="#9671ff" d="M1143.4 824.82l39.8 70.63-65.5-127.3z"/><path stroke="#4eff33" d="M702.42 454.03l-14.56-14.39 14.28 3.62z"/><path stroke="#da93ff" d="M702.42 454.03l-.28-10.77 12.2 4.46z"/><path stroke="#1fffa9" d="M2426.8 656.05l-123.3 4.24 50.7 186.73z"/><path stroke="#e1ff05" d="M2426.8 656.05l-69.7-136.45-53.6 140.69z"/><path stroke="#ceff5f" d="M702.42 454.03l-8.14-3.63-6.42-10.76z"/><path stroke="#ff992d" d="M702.15 408.27l16.11 5.76-17.44 3.8z"/><path stroke="#7171ff" d="M733.35 442.78l-4.88 11.46-14.13-6.52z"/><path stroke="#465cff" d="M597.97 801.76l26.29-32.19-6.66 78.33z"/><path stroke="#0dfff8" d="M684.88 423.99l15.94-6.16-5.68 10.75z"/><path stroke="#41ffb9" d="M684.88 423.99l10.26 4.59-7.28 11.06z"/><path stroke="#ff0828" d="M2321.4 1585.5l-142-155.7-12.5 159.6z"/><path stroke="#3230ff" d="M2366.6 1585.2l-45.2.3-154.5 3.9z"/><path stroke="#3cffeb" d="M2086.4 1580.7l128.4 19.3-47.9-10.6z"/><path stroke="#ffb5f0" d="M2086.4 1580.7l80.5 8.7 12.5-159.6z"/><path stroke="#ff9afa" d="M2366.6 1585.2l-199.7 4.2 47.9 10.6z"/><path stroke="#12fff5" d="M702.42 454.03l11.92-6.31 4.69 11.47z"/><path stroke="#1cff0e" d="M714.34 447.72l14.13 6.52-9.44 4.95z"/><path stroke="#ffa257" d="M716.66 407.44l1.6 6.59-16.11-5.76z"/><path stroke="#ff8049" d="M716.66 407.44l10.9 3.42-9.3 3.17z"/><path stroke="#ff85f1" d="M880.81 127.95l66.11 75.82 54.98-54.26z"/><path stroke="#fffd94" d="M862.62 73.837L753.79 105.72l127.02 22.23z"/><path stroke="#ff045b" d="M862.62 73.837l18.19 54.113 121.09 21.56z"/><path stroke="#3f4dff" d="M946.92 203.77l163.18 171.34-27-149.23z"/><path stroke="#bc9eff" d="M623.32 753.06l.94 16.51-9.2-106.38z"/><path stroke="#46ff6d" d="M613.76 660.76l9.56 92.3-8.26-89.87z"/><path stroke="#ecffbb" d="M623.32 753.06l-5.72 94.84 6.66-78.33z"/><path stroke="#f3ff64" d="M740.26 437.14l-6.91 5.64 4.53-14.33z"/><path stroke="#d4ff59" d="M700.1 454.77l-5.82-4.37 8.14 3.63z"/><path stroke="#da85ff" d="M783.7 665.77l-70.96-142.32-1.13 42.12z"/><path stroke="#e0c1ff" d="M711.61 565.57l1.13-42.12-46.57-53.25z"/><path stroke="#b564ff" d="M555.31 852.75l-50.39 104.87 31.59-106.92z"/><path stroke="#bbff46" d="M555.31 852.75l-5.61 105.9-44.78-1.03z"/><path stroke="#033dff" d="M1126.6 1586.5l8.8-.6 114.7 1.1z"/><path stroke="#b5c9ff" d="M1126.6 1586.5l100.2-121.2 8.8 9.6z"/><path stroke="#ffb335" d="M1126.6 1586.5l109-111.6-100.2 111z"/><path stroke="#ff00ad" d="M687.86 439.64l-6.2-9.44 3.22-6.21z"/><path stroke="#10ff69" d="M728.47 454.24l-1.84 3.98-7.6.97z"/><path stroke="#24ffad" d="M597.97 801.76L587.2 941.88l-37.5 16.77z"/><path stroke="#2cffc6" d="M597.97 801.76l19.63 46.14-30.4 93.98z"/><path stroke="#9f79ff" d="M692.9 457.26l-26.73 12.94 46.57 53.25z"/><path stroke="#3143ff" d="M625.48 696.74l-23.1 1.29 7.15 4.61z"/><path stroke="#ff41af" d="M679.44 440.18l26.99 5.5-7.31-9.28z"/><path stroke="#00ffbd" d="M679.44 440.18l-13.27 30.02 26.73-12.94z"/><path stroke="#0dff29" d="M679.44 440.18l13.46 17.08 13.53-11.58z"/><path stroke="#33ffcb" d="M684.44 439.65l3.42-.01 6.42 10.76z"/><path stroke="#4f00ff" d="M684.44 439.65l-2.78-9.45 6.2 9.44z"/><path stroke="#ff77ab" d="M726.63 458.22l-15.97 2.29 8.37-1.32z"/><path stroke="#93ffad" d="M710.66 460.51l-10.56-5.74 2.32-.74z"/><path stroke="#8e62ff" d="M719.03 459.19l-8.37 1.32-8.24-6.48z"/><path stroke="#9cff15" d="M1117.7 768.15l65.5 127.3-18.8-71.83z"/><path stroke="#d23bff" d="M1164.4 823.62l-60.5-274.59 13.8 219.12z"/><path stroke="#ff5eee" d="M528.59 675.03l7.92 175.67 4.49-75.78z"/><path stroke="#456dff" d="M541 774.92l-.84-103.78-11.57 3.89z"/><path stroke="#5bffee" d="M946.92 203.77l83.68 187.84 79.5-16.5z"/><path stroke="#ff81cc" d="M1030.6 391.61l73.3 157.42 6.2-173.92z"/><path stroke="#ff68f8" d="M1030.6 391.61l-40.36 116.63 48.36 52.66z"/><path stroke="#ffba70" d="M1030.6 391.61l8 169.29 65.3-11.87z"/><path stroke="#f2ff79" d="M735.94 411.42l-2.58 7.9-5.8-8.46z"/><path stroke="#ffb2ed" d="M710.66 460.51l-15.52-10.25 4.96 4.51z"/><path stroke="#ff5b20" d="M695.14 450.26l-.86.14 5.82 4.37z"/><path stroke="#ff2b93" d="M695.14 450.26l-10.7-10.61 9.84 10.75z"/><path stroke="#c1ffcd" d="M699.72 406.08l12.4.52 4.54.84z"/><path stroke="#00c8ff" d="M699.72 406.08l16.94 1.36-14.51.83z"/><path stroke="#0050ff" d="M740.12 444.37l-11.65 9.87 4.88-11.46z"/><path stroke="#e19bff" d="M740.26 437.14l-.14 7.23-6.77-1.59z"/><path stroke="#990eff" d="M728.47 454.24l11.65-9.87-13.49 13.85z"/><path stroke="#3307ff" d="M745.42 430.95l-5.3 13.42.14-7.23z"/><path stroke="#ff8775" d="M733.36 419.32l12.06 11.63-7.54-2.5z"/><path stroke="#4397ff" d="M733.36 419.32l2.58-7.9 9.48 19.53z"/><path stroke="#64beff" d="M737.88 428.45l7.54 2.5-5.16 6.19z"/><path stroke="#ff9f07" d="M532.27 719.86l-6.26-32.67-68.76 33.22z"/><path stroke="#fff11e" d="M457.25 720.41l68.76-33.22-83.14-46.39z"/><path stroke="#ff0a0a" d="M526.01 687.19l23.16 23.47-3.31-20.03z"/><path stroke="#f888ff" d="M526.01 687.19l6.26 32.67 16.9-9.2z"/><path stroke="#e12bd7" d="M681.66 430.2l5.17-17.96-1.95 11.75z"/><path stroke="#ff7871" d="M699.72 406.08l2.43 2.19-15.32 3.97z"/><path stroke="#e5ff1c" d="M686.83 412.24l15.32-3.97-1.33 9.56z"/><path stroke="#ffe900" d="M686.83 412.24l13.99 5.59-15.94 6.16z"/><path stroke="#ff3244" d="M726.63 458.22l-8.14 1.32-7.83.97z"/><path stroke="#afffff" d="M826.7 104.59l54.11 23.36-127.02-22.23z"/><path stroke="#ffc8ee" d="M1083.1 225.88l83.6 29.29 6.3-111.86z"/><path stroke="#451dff" d="M1166.7 255.17l137.9-149.73-131.6 37.87z"/><path stroke="#fcff85" d="M1083.1 225.88l27 149.23 56.6-119.94z"/><path stroke="#3b7aff" d="M692.9 457.26l30.73-10.66-17.2-.92z"/><path stroke="#ff0e09" d="M537.03 839.8l3.97-64.88-4.49 75.78z"/><path stroke="#1dffc0" d="M1301.9 247.28l173.3-19.22-170.6-122.62z"/><path stroke="#ff49ea" d="M1166.7 255.17l135.2-7.89 2.7-141.84z"/><path stroke="#4cff11" d="M712.12 406.6l15.3.22-10.76.62z"/><path stroke="#58cdff" d="M727.42 406.82l.14 4.04-10.9-3.42z"/><path stroke="#ff9811" d="M735.94 411.42l-8.38-.56-.14-4.04z"/><path stroke="#ff0031" d="M740.12 444.37L727.5 455.8l-.87 2.42z"/><path stroke="#0f62ff" d="M726.63 458.22l.87-2.42-9.01 3.74z"/><path stroke="#310eff" d="M1479.7 1011.3l-58.5 65.8 11.6 128z"/><path stroke="#ff603e" d="M1421.2 1077.1l58.5-65.8 29.9-71.45z"/><path stroke="#ffd7ad" d="M1421.2 1077.1l88.4-137.25-8.3-20.55z"/><path stroke="#6dd7ff" d="M625.48 696.74l-5.37.14-17.73 1.15z"/><path stroke="#e6bdff" d="M620.11 696.88l-34.27-3.49 16.54 4.64z"/><path stroke="#8978ff" d="M700.84 636.86l-80.73 60.02 5.37-.14z"/><path stroke="#fd54e1" d="M745.42 430.95l-9.48-19.53 5.03 4.84z"/><path stroke="#4009ff" d="M735.94 411.42l-8.52-4.6 13.55 9.44z"/><path stroke="#a8ff00" d="M679.44 440.18l-2.4-23.66-10.87 53.68z"/><path stroke="#9321ff" d="M677.04 416.52l2.4 23.66 19.68-3.78z"/><path stroke="#ff0a15" d="M677.04 416.52l22.08 19.88-1.3-12.84z"/><path stroke="#fff2b7" d="M705.44 404.78l21.98 2.04-15.3-.22z"/><path stroke="#98ff73" d="M699.72 406.08l5.72-1.3 6.68 1.82z"/><path stroke="#acff36" d="M689.73 409.56l9.99-3.48-12.89 6.16z"/><path stroke="#0add28" d="M690.9 444.98l-6.46-5.33 10.7 10.61z"/><path stroke="#ff723a" d="M2357.1 519.6l-22.2-114.94-159.3 59.15z"/><path stroke="#5342ff" d="M2334.9 404.66l-197.8-142.8 38.5 201.95z"/><path stroke="#00bcff" d="M710.66 460.51l-11.27-6.96-4.25-3.29z"/><path stroke="#ff2836" d="M699.39 453.55l-8.49-8.57 4.24 5.28z"/><path stroke="#ff636c" d="M684.44 439.65l-.57-17.84-2.21 8.39z"/><path stroke="#82ff3c" d="M689.73 409.56l-2.9 2.68-2.96 9.57z"/><path stroke="#11ff06" d="M681.66 430.2l2.21-8.39 2.96-9.57z"/><path stroke="#ff013a" d="M718.49 459.54l9.01-3.74-15.49 1.12z"/><path stroke="#ffdc00" d="M712.01 456.92l-12.62-3.37 11.27 6.96z"/><path stroke="#89ffc0" d="M712.01 456.92l-1.35 3.59 7.83-.97z"/><path stroke="#4cffc3" d="M1441.2 1464l-24.5-49 55.4 175.3z"/><path stroke="#8fff47" d="M1421.2 1077.1l-4.5 337.9 16.1-209.9z"/><path stroke="#9694ff" d="M1432.8 1205.1l-16.1 209.9 24.5 49z"/><path stroke="#ffc78d" d="M740.97 416.26l-13.55-9.44 6.05 4.88z"/><path stroke="#ff09be" d="M1110.1 375.11l-6.2 173.92 57.6 90.57z"/><path stroke="#ff223d" d="M1103.9 549.03l60.5 274.59-2.9-184.02z"/><path stroke="#ff979b" d="M578.97 784.52l.6-119.88-39.41 6.5z"/><path stroke="#8bffde" d="M540.16 671.14l.84 103.78 37.97 9.6z"/><path stroke="#93ddff" d="M613.76 660.76l-34.19 3.88-.6 119.88z"/><path stroke="#6fff42" d="M578.97 784.52l44.35-31.46-9.56-92.3z"/><path stroke="#db65ff" d="M1030.6 391.61l-83.68-187.84 5.98 95.17z"/><path stroke="#68ff7a" d="M692.9 457.26l19.84 66.19 11.86-64.49z"/><path stroke="#007dff" d="M724.6 458.96l5.39-23.34-6.36 10.98z"/><path stroke="#ff3393" d="M692.9 457.26l31.7 1.7-.97-12.36z"/><path stroke="#04aaff" d="M699.21 407.19l.51-1.11-9.99 3.48z"/><path stroke="#ff0614" d="M705.44 404.78l-5.72 1.3-.51 1.11z"/><path stroke="#ff7ddb" d="M727.5 455.8l3.35-7.85-18.84 8.97z"/><path stroke="#dfff2d" d="M730.85 447.95l-3.35 7.85 12.62-11.43z"/><path stroke="#b3ff18" d="M687.91 435.8l-3.47 3.85 6.46 5.33z"/><path stroke="#16ffd8" d="M687.91 435.8l-4.04-13.99.57 17.84z"/><path stroke="#ff4163" d="M730.85 447.95l9.27-3.58-.86-5.72z"/><path stroke="#06ffd1" d="M740.12 444.37l5.3-13.42-6.16 7.7z"/><path stroke="#ff84c7" d="M740.97 416.26l-7.5-4.56 6.62 13.01z"/><path stroke="#85ff00" d="M740.09 424.71l5.33 6.24-4.45-14.69z"/><path stroke="#abffa0" d="M745.42 430.95l-5.33-6.24-.83 13.94z"/><path stroke="#40ff6e" d="M733.47 411.7l-6.05-4.88-12.12 2.61z"/><path stroke="#0914ff" d="M715.3 409.43l12.12-2.61-21.98-2.04z"/><path stroke="#ff762c" d="M740.09 424.71l-6.62-13.01-18.17-2.27z"/><path stroke="#03ffb4" d="M715.3 409.43l-9.86-4.65-6.23 2.41z"/><path stroke="#dbff9b" d="M690.9 444.98l2.63-1.04-5.62-8.14z"/><path stroke="#0eff7b" d="M699.39 453.55l-5.86-9.61-2.63 1.04z"/><path stroke="#4384ff" d="M2036 869.66l61.4 50.6 5.1-183.98z"/><path stroke="#8d89ff" d="M2102.5 736.28l251.7 110.74-50.7-186.73z"/><path stroke="#af4aff" d="M2354.2 847.02l-251.7-110.74-5.1 183.98z"/><path stroke="#ffe508" d="M698.93 404.88l-21.89 11.64 20.78 7.04z"/><path stroke="#ffeea1" d="M698.93 404.88l-1.11 18.68 11.88-6.32z"/><path stroke="#ff259e" d="M651.34 142.08l81.6 56.8 20.85-93.16z"/><path stroke="#ff5b5b" d="M732.94 198.88l-81.6-56.8-78.08 208.43z"/><path stroke="#ff820e" d="M526.01 687.19l25.68-5.12-108.82-41.27z"/><path stroke="#001aff" d="M551.69 682.07l-5.83 8.56 15.94-3.18z"/><path stroke="#f6ff40" d="M551.69 682.07l-25.68 5.12 19.85 3.44z"/><path stroke="#f5ffe2" d="M442.87 640.8l108.82 41.27L666.17 470.2z"/><path stroke="#8bf1ff" d="M551.69 682.07l159.92-116.5-45.44-95.37z"/><path stroke="#ffd650" d="M683.87 421.81l11.91-5.5-6.05-6.75z"/><path stroke="#ff43af" d="M695.78 416.31l3.43-9.12-9.48 2.37z"/><path stroke="#9eeeff" d="M2137.1 261.86l-201-135.66-19.3 181.06z"/><path stroke="#ffa14c" d="M1936.1 126.2l-177.5 82.47 158.2 98.59z"/><path stroke="#ff7a74" d="M730.85 447.95l-5.86-1.76-12.98 10.73z"/><path stroke="#b1fff9" d="M740.09 424.71l-24.79-15.28 5.86 11.52z"/><path stroke="#ffe7af" d="M687.91 435.8l8.66-5-12.7-8.99z"/><path stroke="#6dacff" d="M693.53 443.94l3.04-13.14-8.66 5z"/><path stroke="#a5ff36" d="M696.57 430.8l-.79-14.49-11.91 5.5z"/><path stroke="#a2ffc0" d="M551.69 682.07l38.75 9.57 121.17-126.07z"/><path stroke="#f570ff" d="M590.44 691.64l29.67 5.24 80.73-60.02z"/><path stroke="#ffc054" d="M590.44 691.64l-38.75-9.57 10.11 5.38z"/><path stroke="#fffd62" d="M620.11 696.88l-29.67-5.24-4.6 1.75z"/><path stroke="#ff9c6d" d="M590.44 691.64l-28.64-4.19 24.04 5.94z"/><path stroke="#ffe595" d="M711.61 565.57L590.44 691.64l110.4-54.78z"/><path stroke="#e6ff63" d="M623.32 753.06l-32.54 113.95 26.82-19.11z"/><path stroke="#85ff57" d="M623.32 753.06l-44.35 31.46 11.81 82.49z"/><path stroke="#afffd1" d="M587.2 941.88l30.4-93.98-26.82 19.11z"/><path stroke="#af74ff" d="M1706.1 314.53l52.5-105.86-122.1-38.44z"/><path stroke="#c3ffdd" d="M1636.5 170.23l-161.3 57.83 230.9 86.47z"/><path stroke="#e7abff" d="M1706.1 314.53l210.7-7.27-158.2-98.59z"/><path stroke="#3bd9ff" d="M693.53 443.94l8.15 1.13-5.11-14.27z"/><path stroke="#00ff2e" d="M712.01 456.92l-10.33-11.85-2.29 8.48z"/><path stroke="#9b00ff" d="M701.68 445.07l-8.15-1.13 5.86 9.61z"/><path stroke="#00e2ff" d="M698.93 404.88L656.44 375l20.6 41.52z"/><path stroke="#7235ff" d="M573.26 350.51l92.91 119.69-9.73-95.2z"/><path stroke="#ff7fa9" d="M656.44 375l9.73 95.2 10.87-53.68z"/><path stroke="#22ff85" d="M730.85 447.95l-4.13-14.37-1.73 12.61z"/><path stroke="#e1ff19" d="M726.72 433.58l12.54 5.07.83-13.94z"/><path stroke="#30ff22" d="M726.72 433.58l13.37-8.87-18.93-3.76z"/><path stroke="#4affe9" d="M730.85 447.95l8.41-9.3-12.54-5.07z"/><path stroke="#00ff81" d="M715.3 409.43l-16.09-2.24 9.52 13.21z"/><path stroke="#0031ff" d="M708.73 420.4l-9.52-13.21-3.43 9.12z"/><path stroke="#282dff" d="M696.57 430.8l12.16-10.4-12.95-4.09z"/><path stroke="#d1ff5e" d="M701.68 445.07l7.05-24.67-12.16 10.4z"/><path stroke="#ffbfcf" d="M726.72 433.58l-5.56-12.63-12.43-.55z"/><path stroke="#ff73c8" d="M708.73 420.4l12.43.55-5.86-11.52z"/><path stroke="#baff15" d="M715.2 442.18l-6.47-21.78-7.05 24.67z"/><path stroke="#9d32cb" d="M715.2 442.18l-13.52 2.89 10.33 11.85z"/><path stroke="#b4ff08" d="M715.2 442.18l11.52-8.6-17.99-13.18z"/><path stroke="#2dff10" d="M724.99 446.19l1.73-12.61-11.52 8.6z"/><path stroke="#00ff6d" d="M724.99 446.19l-9.79-4.01-3.19 14.74z"/><path stroke="#ed9eff" d="M720.47 413.53l-21.54-8.65 10.77 12.36z"/><path stroke="#9744ff" d="M720.47 413.53l-10.77 3.71 11.7 4.7z"/><path stroke="#d2ff0e" d="M698.93 404.88l21.54 8.65L656.44 375z"/><path stroke="#26ff0a" d="M921.88 419.12l68.36 89.12-11.69-57.67z"/><path stroke="#b3ff0f" d="M978.55 450.57l11.69 57.67 40.36-116.63z"/><path stroke="#05deff" d="M1030.6 391.61l-77.7-92.67 25.65 151.63z"/><path stroke="#ff1099" d="M536.51 850.7l-31.59 106.92-7.66-26.25z"/><path stroke="#ff2fa0" d="M536.51 850.7l-39.25 80.67 39.77-91.57z"/><path stroke="#ffbc5e" d="M556.76 867.19l22.21-82.67-37.97-9.6z"/><path stroke="#618aff" d="M556.76 867.19L541 774.92l-3.97 64.88z"/><path stroke="#ffe931" d="M590.78 867.01l-11.81-82.49-22.21 82.67z"/><path stroke="#f0ff51" d="M497.26 931.37l59.5-64.18-19.73-27.39z"/><path stroke="#ff96cd" d="M724.6 458.96l-11.86 64.49 23.56-84.72z"/><path stroke="#6aff0f" d="M724.6 458.96l11.7-20.23-6.31-3.11z"/><path stroke="#c3ff29" d="M736.3 438.73l-15.83-25.2.93 8.41z"/><path stroke="#117aff" d="M736.3 438.73l-14.9-16.79 8.59 13.68z"/><path stroke="#9106ff" d="M504.92 957.62l44.78 1.03-80.16 59.85z"/><path stroke="#e92bff" d="M2357.1 519.6l-181.5-55.79-18.8 182.83z"/><path stroke="#bf01ff" d="M2357.1 519.6l-200.3 127.04 146.7 13.65z"/><path stroke="#ffee7c" d="M2156.8 646.64l-54.3 89.64 201-75.99z"/><path stroke="#ffc4c1" d="M1416.7 1415l4.5-337.9-54.9 338.4z"/><path stroke="#ff526f" d="M1184.5 1122.9l42.3 342.4 58.9-26z"/><path stroke="#dcff5d" d="M1126.6 1586.5l159.1-147.2-58.9 26z"/><path stroke="#fff481" d="M569.83 950.41l17.37-8.53 3.58-74.87z"/><path stroke="#ff1b88" d="M453.84 993.37l51.08-35.75-35.38 60.88z"/><path stroke="#d104ff" d="M453.84 993.37l43.42-62 7.66 26.25z"/><path stroke="#18ff00" d="M726.3 296.94L656.44 375l64.03 38.53z"/><path stroke="#ff75eb" d="M726.3 296.94l-153.04 53.57L656.44 375z"/><path stroke="#c8ffce" d="M726.3 296.94l6.64-98.06-159.68 151.63z"/><path stroke="#ff43ec" d="M1475.2 228.06l19.6 146.03 211.3-59.56z"/><path stroke="#ff2da8" d="M1730.7 978.44l208.5-16.02-79.3-157.09z"/><path stroke="#c8ffdf" d="M1939.2 962.42l96.8-92.76-176.1-64.33z"/><path stroke="#ffdf59" d="M1250.1 1587l141.6-14.9 40.7 25.7z"/><path stroke="#dd8dff" d="M1432.4 1597.8l-40.7-25.7 80.4 18.2z"/><path stroke="#ff24c3" d="M1416.7 1415l15.7 182.8 39.7-7.5z"/><path stroke="#b34dff" d="M732.94 198.88l87.28-123.812-66.43 30.652z"/><path stroke="#1553db" d="M820.22 75.068l60.59 52.882-54.11-23.36z"/><path stroke="#a845ff" d="M820.22 75.068l6.48 29.522-72.91 1.13z"/><path stroke="#ff0641" d="M501.75 1020.6l47.95-61.95 37.5-16.77z"/><path stroke="#d6ff6a" d="M549.7 958.65l-47.95 61.95-32.21-2.1z"/><path stroke="#11ffca" d="M736.3 438.73l69.58 10.88-85.41-36.08z"/><path stroke="#351bff" d="M805.88 449.61L726.3 296.94l-5.83 116.59z"/><path stroke="#92ff00" d="M990.24 508.24l-184.36-58.63-22.18 216.16z"/><path stroke="#3e96ff" d="M726.3 296.94l79.58 152.67 116-30.49z"/><path stroke="#bc12ff" d="M805.88 449.61l184.36 58.63-68.36-89.12z"/><path stroke="#ff07de" d="M712.74 523.45l93.14-73.84-69.58-10.88z"/><path stroke="#c158ff" d="M783.7 665.77l22.18-216.16-93.14 73.84z"/><path stroke="#ff3b00" d="M1240.6 886.01l-76.2-62.39 18.8 71.83z"/><path stroke="#ff34e4" d="M1240.6 886.01l-79.1-246.41 2.9 184.02z"/><path stroke="#ff720d" d="M1501.3 919.3l229.4 59.14-79.3-203.17z"/><path stroke="#c7ff5e" d="M1501.3 919.3l150.1-144.03-169.6-1.87z"/><path stroke="#8454ff" d="M1420.2 883.9l81.1 35.4-19.5-145.9z"/><path stroke="#ae37ff" d="M1420.2 883.9l1 193.2 80.1-157.8z"/><path stroke="#831dff" d="M1421.2 1077.1l-1-193.2-52.1 60.31z"/><path stroke="#fffa00" d="M1368.1 944.21l-1.8 471.29 54.9-338.4z"/><path stroke="#a874ff" d="M873.08 232.27L726.3 296.94l195.58 122.18z"/><path stroke="#d7ff1c" d="M946.92 203.77l-66.11-75.82 28.67-14.02z"/><path stroke="#c8ff0a" d="M952.9 298.94l-5.98-95.17-37.44-89.84z"/><path stroke="#32ff95" d="M1230.7 443.17l71.2-195.89-135.2 7.89z"/><path stroke="#ffe23f" d="M1230.7 443.17l-120.6-68.06 51.4 264.49z"/><path stroke="#3e92ff" d="M1110.1 375.11l120.6 68.06-64-188z"/><path stroke="#2dabff" d="M1230.7 443.17l92.5 19.47-21.3-215.36z"/><path stroke="#8f3fff" d="M1285.7 1439.3l80.6-23.8-120.5-396.6z"/><path stroke="#ff9700" d="M1245.8 1018.9l122.3-74.69-127.5-58.2z"/><path stroke="#ffba1d" d="M1245.8 1018.9l-5.2-132.89-57.4 9.44z"/><path stroke="#caff5b" d="M1245.8 1018.9l-62.6-123.45 1.3 227.45z"/><path stroke="#69ecff" d="M1245.8 1018.9l-61.3 104 101.2 316.4z"/><path stroke="#ff62a0" d="M1366.3 1415.5l1.8-471.29-122.3 74.69z"/><path stroke="#d7ff00" d="M1420.2 883.9l61.6-110.5-23.3-50.89z"/><path stroke="#0e20c5" d="M1411.4 449.73l83.4-75.64-19.6-146.03z"/><path stroke="#ff9fd9" d="M1475.2 228.06l-173.3 19.22 109.5 202.45z"/><path stroke="#a0c1ff" d="M1323.2 462.64l88.2-12.91-109.5-202.45z"/><path stroke="#8f00ff" d="M452.3 979.55l44.96-48.18-43.42 62z"/><path stroke="#ffc297" d="M1496.9 586.88l-85.5-137.15 47.1 272.78z"/><path stroke="#64ffbb" d="M1458.5 722.51l23.3 50.89 15.1-186.52z"/><path stroke="#87ffae" d="M1496.9 586.88l-15.1 186.52 169.6 1.87z"/><path stroke="#64ff7d" d="M1411.4 449.73l85.5 137.15-2.1-212.79z"/><path stroke="#ff35a2" d="M883.38 80.796l26.1 33.134-28.67 14.02z"/><path stroke="#a5ffc6" d="M883.38 80.796l-2.57 47.154-60.59-52.882z"/><path stroke="#ff6400" d="M495.87 977.37l73.96-26.96 20.95-83.4z"/><path stroke="#fffd32" d="M556.76 867.19l-59.5 64.18-1.39 46z"/><path stroke="#00f3ff" d="M495.87 977.37l1.39-46-44.96 48.18z"/><path stroke="#ebff7b" d="M556.76 867.19l-60.89 110.18 94.91-110.36z"/><path stroke="#ff199d" d="M495.87 977.37l5.68 33.33 68.28-60.29z"/><path stroke="#0ce1ff" d="M587.2 941.88l-85.65 68.82.2 9.9z"/><path stroke="#ff716a" d="M587.2 941.88l-17.37 8.53-68.28 60.29z"/><path stroke="#a6ff00" d="M393.38 1048l60.46-54.63 15.7 25.13z"/><path stroke="#8964ff" d="M1323.2 462.64l-7.4 182.73 95.6-195.64z"/><path stroke="#ff63f8" d="M1315.8 645.37l-154.3-5.77 79.1 246.41z"/><path stroke="#2aff2a" d="M1420.2 883.9l38.3-161.39-142.7-77.14z"/><path stroke="#fcff04" d="M1315.8 645.37l-85.1-202.2-69.2 196.43z"/><path stroke="#5c00ff" d="M1315.8 645.37l52.3 298.84 52.1-60.31z"/><path stroke="#ff46f5" d="M1240.6 886.01l127.5 58.2-52.3-298.84z"/><path stroke="#79aaff" d="M1411.4 449.73l-95.6 195.64 142.7 77.14z"/><path stroke="#ff0031" d="M1315.8 645.37l7.4-182.73-92.5-19.47z"/><path stroke="#cbffb7" d="M828.41 179.78l-8.19-104.712-87.28 123.812z"/><path stroke="#ffe42d" d="M828.41 179.78L726.3 296.94l146.78-64.67z"/><path stroke="#ff40fd" d="M732.94 198.88l-6.64 98.06 102.11-117.16z"/><path stroke="#ffd9f7" d="M1070.1 539.17l-51.3 62.99-40.25-151.59z"/><path stroke="#ff9e00" d="M1070.1 539.17l-91.55-88.6-25.65-151.63z"/><path stroke="#b48fd9" d="M1079.8 749.23l-61-147.07 51.3-62.99z"/><path stroke="#25fffb" d="M1821.3 419.6l95.5-112.34-210.7 7.27z"/><path stroke="#ff6b4a" d="M1821.3 419.6l-115.2-105.07-211.3 59.56z"/><path stroke="#cc81ff" d="M1657.7 556.1l163.6-136.5-326.5-45.51z"/><path stroke="#7299ff" d="M1496.9 586.88l160.8-30.78-162.9-182.01z"/><path stroke="#5bff14" d="M1651.4 775.27l6.3-219.17-160.8 30.78z"/><path stroke="#f709ff" d="M423.09 1063.4l-29.71-15.4 76.16-29.5z"/><path stroke="#f7ffa0" d="M423.09 1063.4l46.45-44.9 32.21 2.1z"/><path stroke="#60ff6a" d="M501.55 1010.7l-78.46 52.7 78.66-42.8z"/><path stroke="#0aff10" d="M1432.4 1597.8l-15.7-182.8-59.5 157.8z"/><path stroke="#9aa3ff" d="M1357.2 1572.8l59.5-157.8-50.4.5z"/><path stroke="#fff8d4" d="M1859.9 805.33l176.1 64.33-63.9-222.88z"/><path stroke="#ff120b" d="M1972.1 646.78l184.7-.14 18.8-182.83z"/><path stroke="#4cd8ff" d="M2102.5 736.28l-130.4-89.5 63.9 222.88z"/><path stroke="#7affe0" d="M2102.5 736.28l54.3-89.64-184.7.14z"/><path stroke="#b0ff92" d="M1730.7 978.44l129.2-173.11-102.6-123.04z"/><path stroke="#ff337c" d="M1651.4 775.27l105.9-92.98-99.6-126.19z"/><path stroke="#55ff2e" d="M1757.3 682.29l102.6 123.04 112.2-158.55z"/><path stroke="#64ff30" d="M1730.7 978.44l26.6-296.15-105.9 92.98z"/><path stroke="#0fc" d="M453.84 993.37l-70.72 23.33 69.18-37.15z"/><path stroke="#ff4f8a" d="M453.84 993.37L393.38 1048l-10.26-31.3z"/><path stroke="#0859ff" d="M1203.9 1579.5l228.5 18.3-75.2-25z"/><path stroke="#61ffd6" d="M1366.3 1415.5l-80.6 23.8-81.8 140.2z"/><path stroke="#ffdb54" d="M1203.9 1579.5l46.2 7.5 182.3 10.8z"/><path stroke="#b8ffda" d="M1126.6 1586.5l123.5.5-46.2-7.5z"/><path stroke="#21ffeb" d="M1126.6 1586.5l77.3-7 81.8-140.2z"/><path stroke="#5eff5e" d="M1366.3 1415.5l-162.4 164 153.3-6.7z"/><path stroke="#ff5f1c" d="M1079.8 749.23l57.1-43.11-118.1-103.96z"/><path stroke="#d81bff" d="M383.12 1016.7l10.26 31.3-101.27 10.2z"/><path stroke="#d95fff" d="M423.09 1063.4l-130.98-5.2 101.27-10.2z"/><path stroke="#0ec569" d="M1136.9 706.12l-57.1 43.11 107.5-90.15z"/><path stroke="#dee7ff" d="M1821.3 419.6l127.2 85.4-31.7-197.74z"/><path stroke="#67ffe3" d="M1948.5 505l227.1-41.19-38.5-201.95z"/><path stroke="#ff108b" d="M1757.3 682.29l214.8-35.51L1948.5 505z"/><path stroke="#c04eff" d="M1972.1 646.78l203.5-182.97L1948.5 505z"/><path stroke="#c3ff5c" d="M1948.5 505l188.6-243.14-220.3 45.4z"/><path stroke="#ff0079" d="M1948.5 505l-127.2-85.4-163.6 136.5z"/><path stroke="#2fff01" d="M1757.3 682.29L1948.5 505l-290.8 51.1z"/><path stroke="#c279ff" d="M297.39 1037.3l85.73-20.6-91.01 41.5z"/><path stroke="#ffaa8a" d="M383.12 1016.7l-85.73 20.6 81.67-15.6z"/><path stroke="#32ffea" d="M495.87 977.37l-43.57 2.18-73.24 42.15z"/><path stroke="#66ff49" d="M383.12 1016.7l-4.06 5 73.24-42.15z"/><path stroke="#ffa32b" d="M495.87 977.37l-116.81 44.33 47.82 22.8z"/><path stroke="#ff8566" d="M373.13 1068.9l49.96-5.5 3.79-18.9z"/><path stroke="#22ff71" d="M501.55 1010.7l-5.68-33.33-68.99 67.13z"/><path stroke="#ff82b6" d="M423.09 1063.4l78.46-52.7-74.67 33.8z"/><path stroke="#d0ff0b" d="M921.88 419.12l56.67 31.45-36.98-142.58z"/><path stroke="#e7ff6b" d="M921.88 419.12l19.69-111.13-68.49-75.72z"/><path stroke="#23ffd0" d="M248.71 1075.4l43.4-17.2 130.98 5.2z"/><path stroke="#59ff9c" d="M941.57 307.99l36.98 142.58 56.75-23.76z"/><path stroke="#08ff0b" d="M1018.8 602.16l16.5-175.35-56.75 23.76z"/><path stroke="#8935ff" d="M297.39 1037.3l-5.28 20.9-112.65-13.3z"/><path stroke="#ff12b1" d="M909.48 113.93l55.67 71.56-12.25 113.45z"/><path stroke="#ffffb3" d="M253.21 1033.5l125.85-11.8-81.67 15.6z"/><path stroke="#ed66b2" d="M253.21 1033.5l44.18 3.8-117.93 7.6z"/><path stroke="#b527ff" d="M179.46 1044.9l112.65 13.3-124.73.3z"/><path stroke="#5478ff" d="M248.71 1075.4l-81.33-16.9 124.73-.3z"/><path stroke="#ff358b" d="M68.366 1029.8l111.094 15.1-12.08 13.6z"/><path stroke="#ff6c48" d="M965.15 185.49l85.65 224.7-97.9-111.25z"/><path stroke="#ff2e00" d="M1050.8 410.19l19.3 128.98-117.2-240.23z"/><path stroke="#ff10db" d="M426.88 1044.5l-81.54 5.8 27.79 18.6z"/><path stroke="#ffea7f" d="M345.34 1050.3l81.54-5.8-47.82-22.8z"/><path stroke="#ff459e" d="M179.46 1044.9l-111.094-15.1 45.234 2.2z"/><path stroke="#ff5cc7" d="M253.21 1033.5l-73.75 11.4.23-1.2z"/><path stroke="#96ff30" d="M113.6 1032l66.09 11.7-.23 1.2z"/><path stroke="#d697ff" d="M373.13 1068.9l-103.89 8.2 153.85-13.7z"/><path stroke="#fe8" d="M167.38 1058.5l81.33 16.9 20.53 1.7z"/><path stroke="#fff405" d="M269.24 1077.1l103.89-8.2-27.79-18.6z"/><path stroke="#41ff37" d="M423.09 1063.4l-153.85 13.7-20.53-1.7z"/><path stroke="#0240ff" d="M45.092 1016.1L113.6 1032l-45.234-2.2z"/><path stroke="#48fff6" d="M179.69 1043.7L113.6 1032l52.89 22z"/><path stroke="#ac20ff" d="M167.38 1058.5l101.86 18.6-102.75-23.1z"/><path stroke="#59ff59" d="M63.379 1033.6l104.001 24.9-.89-4.5z"/><path stroke="#f8ff20" d="M63.379 1033.6l50.221-1.6-68.508-15.9z"/><path stroke="#2ca6ff" d="M45.092 1016.1l23.274 13.7-4.987 3.8z"/><path stroke="#281cff" d="M68.366 1029.8l99.014 28.7-104.001-24.9z"/><path stroke="#a526ff" d="M63.379 1033.6L166.49 1054l-52.89-22z"/><path stroke="#008dff" d="M345.34 1050.3l33.72-28.6-121.67 32.3z"/><path stroke="#ff2400" d="M253.21 1033.5l-73.52 10.2 77.7 10.3z"/><path stroke="#ffb1ce" d="M257.39 1054h-90.9l102.75 23.1z"/><path stroke="#20b9ff" d="M179.69 1043.7l-13.2 10.3h90.9z"/><path stroke="#45ff4b" d="M345.34 1050.3l-87.95 3.7 11.85 23.1z"/><path stroke="#ff76ca" d="M379.06 1021.7l-125.85 11.8 4.18 20.5z"/><path stroke="#1899ff" d="M820.22 75.068L960.8 0l-77.42 80.796z"/><path stroke="#ff48c5" d="M883.38 80.796L960.8 0l-51.32 113.93z"/><path stroke="#ff010f" d="M820.22 75.068l8.19 104.712 72.95-72.6z"/><path stroke="#20ffc8" d="M873.08 232.27l28.28-125.09-72.95 72.6z"/><path stroke="#c224ff" d="M901.36 107.18l-28.28 125.09 68.49 75.72z"/><path stroke="#00ff30" d="M1116.6 504.59l-97.8 97.57 118.1 103.96z"/><path stroke="#ff21db" d="M1035.3 426.81l-16.5 175.35 97.8-97.57z"/><path stroke="#e8ff00" d="M820.22 75.068l105.05-64.022L960.8 0z"/><path stroke="#f7f782" d="M925.27 11.046L820.22 75.068l81.14 32.112z"/><path stroke="#ffa014" d="M1227.3 559.43l-110.7-54.84 20.3 201.53z"/><path stroke="#2aff3b" d="M1227.3 559.43l-90.4 146.69 50.4-47.04z"/><path stroke="#ff123c" d="M909.48 113.93L960.8 0l18.69 71.087z"/><path stroke="#02a6ff" d="M965.15 185.49l-55.67-71.56 70.01-42.843z"/><path stroke="#47ffbc" d="M1053.7 234.76L1182 483.23l-131.2-73.04z"/><path stroke="#06e1ff" d="M1053.7 234.76l-2.9 175.43-85.65-224.7z"/><path stroke="#2994ff" d="M965.15 185.49l14.34-114.403 74.21 163.673z"/><path stroke="#b9c2ff" d="M1227.3 559.43l-45.3-76.2 147.9-59.16z"/><path stroke="#ff73dc" d="M941.57 307.99l93.73 118.82 159.2 21.67z"/><path stroke="#bdb0ff" d="M1227.3 559.43l102.6-135.36-135.4 24.41z"/><path stroke="#87fff2" d="M1194.5 448.48l-159.2-21.67 81.3 77.78z"/><path stroke="#ff0632" d="M1194.5 448.48l-77.9 56.11 110.7 54.84z"/><path stroke="#9297ff" d="M984.38 186.26l-83.02-79.08 40.21 200.81z"/><path stroke="#ff7819" d="M941.57 307.99l124.33-58.72-81.52-63.01z"/><path stroke="#ff60ca" d="M1194.5 448.48l-128.6-199.21-124.33 58.72z"/><path stroke="#ff37ee" d="M1045.9 123.51l7.8 111.25-74.21-163.673z"/><path stroke="#2dff3e" d="M984.38 186.26l45.72-110.579-128.74 31.499z"/><path stroke="#96ffc6" d="M1329.9 424.07l-77.9-72.51-57.5 96.92z"/><path stroke="#22ff1d" d="M1065.9 249.27l128.6 199.21 57.5-96.92z"/><path stroke="#fd9680" d="M1065.5 23.863L960.8 0l-35.53 11.046z"/><path stroke="#ff00d6" d="M1065.5 23.863l-86.01 47.224L960.8 0z"/><path stroke="#ffe6c9" d="M1065.5 23.863l-19.6 99.647-66.41-52.423z"/><path stroke="#cbff3d" d="M1030.1 75.681l35.4-51.818-164.14 83.317z"/><path stroke="#5cffb0" d="M1065.5 23.863L925.27 11.046l-23.91 96.134z"/><path stroke="#09f" d="M1053.7 234.76l-7.8-111.25 135.5 133.87z"/><path stroke="#00eaff" d="M1329.9 424.07l43.7-87.7-121.6 15.19z"/><path stroke="#ffe778" d="M1190.8 56.918l-144.9 66.592 19.6-99.647z"/><path stroke="#62ffcb" d="M1190.8 56.918l-9.4 200.462-135.5-133.87z"/><path stroke="#d2ff79" d="M1151.6 47.976l-121.5 27.705-45.72 110.579z"/><path stroke="#ff0034" d="M1065.5 23.863l-35.4 51.818 121.5-27.705z"/><path stroke="#ffb0c4" d="M1151.6 47.976L984.38 186.26l81.52 63.01z"/><path stroke="#2b35ff" d="M1151.6 47.976l39.2 8.942-125.3-33.055z"/><path stroke="#5f7eff" d="M1252 351.56l13.7-174.23-199.8 71.94z"/><path stroke="#ff1e0a" d="M1151.6 47.976l-85.7 201.294 199.8-71.94z"/><path stroke="#6181ff" d="M1299.3 112.41l-147.7-64.434 114.1 129.354z"/><path stroke="#94ff56" d="M1190.8 56.918l-39.2-8.942 147.7 64.434z"/><path stroke="#b1ffac" d="M1390.9 240.81l-17.3 95.56 17-123.83z"/><path stroke="#b086ff" d="M1390.9 240.81l-91.6-128.4-33.6 64.92z"/><path stroke="#ff8203" d="M1265.7 177.33L1252 351.56l138.9-110.75z"/><path stroke="#ff5124" d="M1390.9 240.81l-.3-28.27-91.3-100.13z"/><path stroke="#34ff43" d="M1373.6 336.37l17.3-95.56L1252 351.56z"/></svg>